<?xml version="1.0" encoding="UTF-8" standalone="no"?>
<svg
   version="1.1"
   width="768"
   height="768"
   id="svg97"
   sodipodi:docname="puppy_husky.svg"
   inkscape:version="1.3.2 (091e20e, 2023-11-25, custom)"
   xmlns:inkscape="http://www.inkscape.org/namespaces/inkscape"
   xmlns:sodipodi="http://sodipodi.sourceforge.net/DTD/sodipodi-0.dtd"
   xmlns="http://www.w3.org/2000/svg"
   xmlns:svg="http://www.w3.org/2000/svg">
  <defs
     id="defs97">
    <clipPath
       clipPathUnits="userSpaceOnUse"
       id="clipPath99">
      <rect
         style="fill:#000000;fill-opacity:1;stroke:none;stroke-width:9.05811"
         id="rect99"
         width="768"
         height="768"
         x="320.61108"
         y="0" />
    </clipPath>
  </defs>
  <sodipodi:namedview
     id="namedview97"
     pagecolor="#ffffff"
     bordercolor="#999999"
     borderopacity="1"
     inkscape:showpageshadow="2"
     inkscape:pageopacity="0"
     inkscape:pagecheckerboard="0"
     inkscape:deskcolor="#d1d1d1"
     inkscape:zoom="0.81818182"
     inkscape:cx="359.33333"
     inkscape:cy="384.38889"
     inkscape:window-width="1920"
     inkscape:window-height="1009"
     inkscape:window-x="1912"
     inkscape:window-y="-8"
     inkscape:window-maximized="1"
     inkscape:current-layer="svg97" />
  <g
     id="g97"
     clip-path="url(#clipPath99)"
     transform="translate(-320.61108)">
    <path
       d="m 0,0 c 464.64,0 929.28,0 1408,0 0,253.44 0,506.88 0,768 C 943.36,768 478.72,768 0,768 0,514.56 0,261.12 0,0 Z"
       fill="#250652"
       id="path1" />
    <path
       d="m 0,0 c 224.73,0 449.46,0 681,0 0,0.33 0,0.66 0,1 -0.81561,0.043748 -0.81561,0.043748 -1.64771,0.088379 -83.51421,4.8655734 -165.55728,38.753381 -226.99292,95.73584 -1.99854,1.84303 -4.03252,3.610391 -6.10937,5.363281 -9.38673,8.16237 -18.30694,17.24301 -26.25,26.8125 -0.70641,0.81727 -1.41281,1.63453 -2.14063,2.47656 C 387.86935,166.59392 364.6919,207.64393 349,251 c -0.30599,0.83563 -0.61198,1.67127 -0.92725,2.53223 -29.20818,80.61268 -29.88714,172.13852 15.19727,297.83154 C 378.74067,584.07831 398.98963,613.95735 423,641 c 1.30324,1.47146 1.30324,1.47146 2.63281,2.97266 5.35826,5.94207 10.91152,11.66923 16.55469,17.33984 0.65323,0.65791 1.30646,1.31581 1.97949,1.99365 7.8122,7.78662 16.24097,14.7881 24.83301,21.69385 1.30904,1.07121 1.30904,1.07121 2.64453,2.16406 C 531.81897,735.07313 605.63056,761.59992 682,767 c 0,0.33 0,0.66 0,1 -225.06,0 -450.12,0 -682,0 C 0,514.56 0,261.12 0,0 Z"
       fill="#fefefe"
       id="path2" />
    <path
       d="m 724,0 c 225.72,0 451.44,0 684,0 0,253.44 0,506.88 0,768 -226.71,0 -453.42,0 -687,0 0,-0.33 0,-0.66 0,-1 0.87286,-0.0647 1.74571,-0.12939 2.64502,-0.19604 80.64603,-6.13669 156.82925,-32.52974 219.32666,-85.12427 1.45822,-1.20758 2.93527,-2.39253 4.42383,-3.5625 7.61997,-6.04217 14.48281,-12.68876 21.33008,-19.58203 1.89657,-1.9073 3.80361,-3.80366 5.71191,-5.69922 C 981.41946,645.86153 987.89115,638.75966 994,631 c 0.87432,-1.03994 1.75445,-2.07507 2.64453,-3.10156 C 1030.8926,588.03491 1052.9637,538.88229 1068,489 c 0.242,-0.79583 0.484,-1.59167 0.7334,-2.41162 C 1083.4424,437.3748 1086.4221,382.69591 1079,332 c -0.1921,-1.33466 -0.1921,-1.33466 -0.3882,-2.69629 -0.7567,-5.12577 -1.6459,-10.2134 -2.6118,-15.30371 -0.319,-1.77117 -0.319,-1.77117 -0.6445,-3.57813 -0.72,-3.8228 -1.5161,-7.62396 -2.3555,-11.42187 -0.1731,-0.79422 -0.3461,-1.58845 -0.5244,-2.40674 -5.7119,-25.70363 -13.797,-51.76078 -25.4297,-75.4292 -1.0596,-2.19243 -2.0548,-4.4052 -3.0381,-6.63281 -18.446,-41.29495 -46.86197,-77.30026 -78.5078,-109.21875 -0.86609,-0.87914 -1.73218,-1.75828 -2.62451,-2.66406 C 956.89755,96.662621 950.61591,91.265208 944,86 942.80339,85.010948 941.60899,84.019215 940.41797,83.023437 925.90211,71.05317 910.18654,60.396772 893.85156,51.0625 891.90149,49.943473 889.96703,48.799783 888.03125,47.65625 852.40011,26.91901 812.19705,13.902694 771.78467,6.5112305 769.31229,6.0573334 766.84564,5.5809996 764.37891,5.0976562 751.03996,2.5823289 737.53042,1.8390605 724,1 c 0,-0.33 0,-0.66 0,-1 z"
       fill="#fefefe"
       id="path3" />
    <path
       d="m 702.4375,16.6875 c 1.71421,0.0027 1.71421,0.0027 3.46304,0.0055 26.32394,0.07062 51.38742,2.427456 77.09946,8.307 1.47364,0.330403 1.47364,0.330403 2.97705,0.66748 29.7766,6.753809 58.13156,17.274646 85.19629,31.382325 1.81795,0.945664 3.64396,1.874184 5.47119,2.801757 C 893.13963,68.324693 908.40724,78.591039 923,90 c 0.89848,0.696094 1.79695,1.392188 2.72266,2.109375 10.49537,8.259775 20.59443,16.906165 29.875,26.515625 2.34861,2.32188 4.82492,4.31559 7.40234,6.375 1.09809,1.15467 2.16249,2.3425 3.1875,3.5625 2.78128,3.26185 5.64439,6.42241 8.5625,9.5625 5.78013,6.35553 11.0664,13.02789 16.25,19.875 0.49871,0.65291 0.99741,1.30582 1.51123,1.97852 C 1048.8682,234.17264 1075.342,332.46834 1064,425 c -0.1071,0.93844 -0.2143,1.87687 -0.3247,2.84375 C 1056.0253,494.83366 1030.2901,560.29182 988,613 c -0.42652,0.53689 -0.85304,1.07379 -1.29248,1.62695 -4.6705,5.87366 -9.55618,11.51799 -14.61377,17.06055 -1.78279,1.96906 -3.50493,3.9714 -5.21875,6 -8.34528,9.54855 -17.45669,18.50505 -27.41797,26.35156 -2.309,1.8428 -4.47426,3.77074 -6.64453,5.77344 -4.22343,3.79263 -8.67161,7.25389 -13.1875,10.6875 -0.70278,0.54116 -1.40556,1.08233 -2.12964,1.63989 -0.9993,0.7506 -0.9993,0.7506 -2.0188,1.51636 -0.59732,0.45182 -1.19464,0.90363 -1.81006,1.36914 C 912,686 912,686 909,686 c -0.0748,-1.18852 -0.14953,-2.37703 -0.22656,-3.60156 -2.05072,-27.5105 -11.59665,-51.48534 -25.89063,-74.84229 C 882,606 882,606 882,605 c 1.33439,0.0896 2.66754,0.19771 4,0.3125 0.7425,0.058 1.485,0.11602 2.25,0.17578 3.79878,0.70688 7.15684,2.09196 10.75,3.51172 -9.47475,-23.61821 -20.97886,-43.85024 -43,-58 3.72184,-3.77035 7.54205,-7.40981 11.4375,-11 0.54721,-0.50789 1.09441,-1.01578 1.6582,-1.53906 3.5448,-3.27212 7.17481,-6.40085 10.9043,-9.46094 1.485,5.94 1.485,5.94 3,12 12.84542,-7.38612 19.36873,-20.54123 23.21411,-34.36963 C 907.93752,500.09706 909.28013,493.72389 910,487 c 2,2 4,4 6,6 3.41601,0.41693 3.41601,0.41693 7,0 3.05621,-3.0712 3.97785,-6.58216 5.125,-10.6875 0.33258,-1.15887 0.66516,-2.31773 1.00781,-3.51172 4.42104,-19.37689 3.18926,-41.41233 -4.46094,-59.76172 C 924,417 924,417 925,415 c 0.78504,0.64969 1.57008,1.29937 2.37891,1.96875 1.06049,0.84464 2.12173,1.68834 3.18359,2.53125 0.51369,0.42926 1.02738,0.85852 1.55664,1.30078 4.0419,3.16323 6.8258,3.65819 11.88086,3.19922 2.87626,-5.75253 0.52979,-13.01594 -1.25,-18.8125 -0.25958,-0.8482 -0.51917,-1.69641 -0.78662,-2.57031 -7.34286,-22.8499 -18.4811,-44.70518 -32.85401,-63.9375 C 908,337 908,337 908,335 c 1.29555,-1.02864 2.63898,-1.9972 4,-2.9375 5.55819,-4.1818 9.22754,-9.27579 13,-15.0625 0.56977,-0.83273 1.13953,-1.66547 1.72656,-2.52344 1.65451,-2.75353 1.65451,-2.75353 1.27344,-7.47656 -3.3,-0.66 -6.6,-1.32 -10,-2 1.01819,-2.58537 2.06492,-5.14763 3.18359,-7.69141 C 925.87599,286.56432 928.62627,276.78314 928,265 c -2.45526,-0.88081 -3.60063,-1.15673 -6.07031,-0.1875 -0.67805,0.39187 -1.3561,0.78375 -2.05469,1.1875 -2.07031,1.1875 -2.07031,1.1875 -3.875,2 -0.66,-0.33 -1.32,-0.66 -2,-1 0.0166,-0.83302 0.0166,-0.83302 0.0336,-1.68286 1.00534,-52.7787 -1.95968,-118.44831 -40.89693,-159.3562 -3.74582,-3.43767 -7.97731,-6.335557 -13.13672,-6.96094 -1.11375,-0.165 -2.2275,-0.33 -3.375,-0.5 -15.36332,0.229303 -29.34125,15.87933 -39.25,25.875 -0.88945,0.88172 -1.77891,1.76344 -2.69531,2.67188 -5.66749,5.68415 -10.80835,11.57715 -15.67969,17.95312 -0.92305,1.19641 -0.92305,1.19641 -1.86475,2.41699 -12.69209,16.54908 -23.87762,33.4306 -34.13525,51.58301 -1.44623,-0.11102 -2.89139,-0.23613 -4.33594,-0.36719 -0.80486,-0.0682 -1.60971,-0.13632 -2.43896,-0.20654 -3.5512,-0.68032 -4.96903,-2.69524 -7.2251,-5.42627 -11.58333,-12.93882 -27.93257,-19.90273 -45,-22 0.21656,0.81984 0.43313,1.63969 0.65625,2.48437 0.41766,1.61649 0.41766,1.61649 0.84375,3.26563 0.41766,1.60102 0.41766,1.60102 0.84375,3.23437 C 706.99995,183 706.99995,183 706.99995,187 c -1.39604,-0.41598 -2.79181,-0.83285 -4.1875,-1.25 -0.9075,-0.2707 -1.815,-0.54141 -2.75,-0.82031 -2.1296,-0.64649 -4.25433,-1.30916 -6.375,-1.98438 -1.67062,-0.5298 -1.67062,-0.5298 -3.375,-1.07031 -1.03512,-0.33258 -2.07023,-0.66516 -3.13672,-1.00781 -6.06243,-1.65543 -11.84797,-1.98514 -18.11328,-1.92969 -1.02577,0.007 -1.02577,0.007 -2.07227,0.0137 -1.66345,0.0116 -3.32685,0.0296 -4.99023,0.0488 1.26919,4.38448 2.90214,7.59711 5.625,11.25 3.375,4.54592 3.375,4.54592 3.375,6.75 -1.13437,0.0606 -2.26875,0.12117 -3.4375,0.18359 -1.52084,0.0845 -3.04167,0.16914 -4.5625,0.25391 -0.74379,0.0393 -1.48758,0.0786 -2.25391,0.11914 -4.95343,0.27998 -9.82922,0.77847 -14.74609,1.44336 -3.18747,-4.61245 -6.19842,-9.29538 -9.03125,-14.13501 C 620.36359,156.55105 589.7236,107.84555 555.99995,99 c -7.30508,-1.175223 -12.9697,0.846229 -19,5 -24.23533,21.38935 -34.70376,62.55325 -40,93 -0.16226,0.88542 -0.32452,1.77085 -0.4917,2.68311 -3.95904,22.49176 -2.79127,45.57621 -2.5083,68.31689 -5.72656,-1.85938 -5.72656,-1.85938 -8.1875,-3.125 -1.92733,-1.09237 -1.92733,-1.09237 -4.8125,-0.875 -3.36263,6.72526 0.0302,16.27623 2,23 1.18114,3.13115 2.45231,6.19068 3.81641,9.24609 1.23537,2.8744 2.23157,5.775 3.18359,8.75391 -3.3,0.66 -6.6,1.32 -10,2 1.27045,10.84645 9.08066,19.01686 17,26 0.99,0.66 1.98,1.32 3,2 -0.89538,4.31846 -3.14618,7.42853 -5.625,11 -0.92274,1.36442 -1.8433,2.73032 -2.76172,4.09766 -0.45036,0.67047 -0.90073,1.34094 -1.36474,2.03173 -10.14202,15.19518 -17.74876,32.36031 -23.43604,49.68311 -0.29133,0.86351 -0.58266,1.72702 -0.88281,2.6167 -1.92304,6.19128 -2.52283,12.09494 -1.92969,18.5708 1.14394,1.35304 1.14394,1.35304 4.19141,1.34375 4.66347,-0.42091 6.28493,-1.76716 9.74609,-4.84375 0.95777,-0.83531 1.91555,-1.67062 2.90234,-2.53125 0.71286,-0.64969 1.42571,-1.29938 2.16016,-1.96875 0.66,0.33 1.32,0.66 2,1 -0.24234,0.56203 -0.48469,1.12406 -0.73437,1.70312 -9.27881,23.2684 -10.18109,48.79249 -1.26563,72.29688 0.33,0.99 0.66,1.98 1,3 3.19998,1.11433 3.19998,1.11433 7,1 1.91233,-1.649 3.27257,-3.3816 4.73828,-5.43359 0.41637,-0.51692 0.83274,-1.03383 1.26172,-1.56641 0.66,0 1.32,0 2,0 0.0864,0.825 0.17273,1.65 0.26172,2.5 2.18769,17.98319 7.62084,36.99209 21.79687,49.28516 1.98357,1.48007 1.98357,1.48007 4.94141,1.21484 0.99,-3.63 1.98,-7.26 3,-11 0.69094,0.70125 1.38188,1.4025 2.09375,2.125 3.05131,3.05131 6.22178,5.96391 9.40625,8.875 3.92272,3.58596 7.76942,7.21374 11.5,11 -0.55945,0.41508 -1.11891,0.83016 -1.69531,1.25781 -19.64635,15.098 -33.00353,32.81062 -40.30469,56.74219 0.81984,-0.28875 1.63969,-0.5775 2.48438,-0.875 1.07765,-0.37125 2.15531,-0.7425 3.26562,-1.125 1.06734,-0.37125 2.13469,-0.7425 3.23438,-1.125 3.01562,-0.875 3.01562,-0.875 7.01562,-0.875 -1.3085,3.62247 -3.01394,6.84838 -4.96973,10.16162 -13.39744,22.76887 -19.36014,45.72229 -22.03027,71.83838 -13.79574,-8.10284 -25.75897,-18.72327 -37.42187,-29.60547 -2.25926,-2.09836 -4.55399,-4.13342 -6.89063,-6.14453 -5.70332,-4.96095 -10.83912,-10.32048 -15.76172,-16.05078 -1.35057,-1.54233 -2.73109,-3.05869 -4.13281,-4.55469 -15.6533,-16.7154 -29.32683,-35.95562 -40.72949,-55.79834 -1.05275,-1.82756 -2.12353,-3.64361 -3.19629,-5.45947 C 363.12842,521.88019 349.34068,469.23237 342.99995,415 c -0.11344,-0.88357 -0.22687,-1.76714 -0.34375,-2.67749 -7.9291,-66.78144 9.64989,-140.40332 40.30908,-199.30933 1.06856,-2.07913 2.09788,-4.17478 3.12451,-6.2749 9.65596,-19.41758 22.19735,-37.9532 35.91016,-54.73828 0.71801,-0.9075 1.43602,-1.815 2.17578,-2.75 14.59314,-18.2479 31.34812,-35.94122 49.82422,-50.25 1.87789,-1.600781 3.75272,-3.205163 5.625,-4.8125 39.09572,-32.554605 86.50612,-54.151542 135.375,-67.1875 0.75362,-0.203188 1.50724,-0.406377 2.28369,-0.615723 8.91657,-2.365774 17.92872,-4.015348 27.02886,-5.509277 0.95898,-0.158796 1.91796,-0.317593 2.90601,-0.481201 18.40938,-2.889147 36.60007,-3.768001 55.21899,-3.706299 z"
       fill="#f3f4f6"
       id="path4" />
    <path
       d="m 702,259 c 2.875,0.0625 2.875,0.0625 6,1 3.81164,5.5226 4.18006,12.13948 5.0625,18.625 0.17209,1.21277 0.34418,2.42553 0.52148,3.67505 1.04823,7.54237 1.92973,15.0843 2.625,22.6665 0.71669,7.68488 1.6332,15.34377 2.57984,23.00309 0.18196,1.47455 0.3623,2.9493 0.54101,4.42425 0.25146,2.07111 0.50874,4.14141 0.76783,6.21158 0.14961,1.20809 0.29922,2.41618 0.45336,3.66089 0.1607,2.63975 0.1607,2.63975 1.44898,3.73364 0.54269,-1.16918 1.08539,-2.33836 1.64453,-3.54297 0.72251,-1.54824 1.44518,-3.09642 2.16797,-4.64453 0.35643,-0.76893 0.71285,-1.53785 1.08008,-2.33008 1.47563,-3.15434 2.93519,-6.20123 4.75586,-9.17383 1.53856,-2.62801 2.31776,-5.1371 3.16406,-8.05859 3.34876,-10.31166 9.77959,-19.50459 19.26172,-25.04688 9.7669,-4.94825 18.90943,-7.20146 29.80078,-4.14062 5.35251,2.07003 9.31343,5.98306 12.28906,10.83594 2.00486,5.04024 1.7641,10.85068 -0.28515,15.82031 -1.20997,2.16628 -2.46829,4.24089 -3.87891,6.28125 0.66644,0.0258 1.33289,0.0516 2.01953,0.0781 14.90899,0.91748 27.31159,7.28049 37.64453,17.98828 6.37364,8.00436 10.74039,17.50884 10.69922,27.80079 -0.71734,6.18611 -3.60694,11.62013 -6.36328,17.1328 0.8598,-0.0464 1.71961,-0.0928 2.60547,-0.14062 16.91912,-0.51662 30.43718,5.49949 42.76953,16.89062 12.05112,13.00592 19.08284,30.13498 18.75,47.75 -0.009,0.91781 -0.018,1.83562 -0.0273,2.78125 -0.0233,2.23987 -0.0561,4.47916 -0.0977,6.71875 -4.8807,0 -7.36449,-1.87017 -11.25,-4.5 -0.64969,-0.42926 -1.29938,-0.85852 -1.96875,-1.30078 C 885.18209,452.14095 883.5903,451.07154 882,450 c 0.0309,1.13051 0.0619,2.26102 0.0937,3.42578 -0.0551,31.37661 -18.22606,61.36715 -39.51123,83.01465 C 820.10722,558.5898 790.84514,572.84392 761,582 c -0.69126,0.21286 -1.38252,0.42571 -2.09473,0.64502 C 748.44993,585.8019 737.80299,587.55447 727,589 c -0.68683,0.0964 -1.37366,0.19288 -2.0813,0.29224 -50.35591,6.42582 -104.36569,-9.65635 -144.41284,-40.43116 C 577.63667,546.61481 574.81193,544.31734 572,542 c -1.26844,-1.03447 -1.26844,-1.03447 -2.5625,-2.08984 C 563.51263,534.88019 558.73249,529.14631 554,523 c -0.66902,-0.85336 -1.33805,-1.70672 -2.02734,-2.58594 C 536.32074,499.77213 527.12744,475.9311 526,450 c -0.80824,0.5543 -1.61648,1.10859 -2.44922,1.67969 -1.06863,0.72445 -2.13726,1.4489 -3.23828,2.19531 -1.58361,1.07895 -1.58361,1.07895 -3.19922,2.17969 C 514.43021,457.73118 511.9716,458.9525 509,460 c -4.36663,-13.09989 0.14697,-27.52708 5.60938,-39.53906 8.98469,-17.59846 21.01782,-27.49414 39.28906,-34.58594 3.65631,-1.0315 7.20387,-1.32453 10.97656,-1.5 0.68836,-0.0387 1.37672,-0.0773 2.08594,-0.11719 1.67929,-0.0933 3.35914,-0.17659 5.03906,-0.25781 -0.27715,-0.5427 -0.5543,-1.08539 -0.83984,-1.64453 -0.36223,-0.71543 -0.72446,-1.43086 -1.09766,-2.16797 -0.35965,-0.7077 -0.7193,-1.41539 -1.08984,-2.14453 -3.43148,-7.20748 -3.21244,-16.74947 -1.01953,-24.34375 6.3422,-13.75967 17.4305,-23.616 31.44921,-29.00781 5.63038,-1.8639 10.66217,-3.24355 16.59766,-2.69141 -0.36094,-0.61746 -0.72187,-1.23492 -1.09375,-1.87109 C 611.70857,314.29313 609.85548,309.67421 611,303 c 2.2413,-6.72389 7.24696,-10.34818 13.125,-13.875 8.18554,-3.06499 17.45218,-1.65033 25.3125,1.61719 11.38557,5.58865 18.78585,13.48614 23.5625,25.25781 0.504,1.65933 0.98365,3.32626 1.4375,5 1.29981,4.7192 3.4528,8.41466 6.06641,12.52734 2.21507,3.66095 3.87331,7.52071 5.49609,11.47266 1.90733,-5.01883 2.6258,-9.81248 3.21875,-15.10547 0.10341,-0.87868 0.20681,-1.75736 0.31335,-2.66267 0.3286,-2.8058 0.64827,-5.61253 0.9679,-8.41936 0.21428,-1.83535 0.42912,-3.67064 0.64453,-5.50586 1.12974,-9.6806 2.20051,-19.36645 3.1947,-29.06194 C 696.35971,264.64029 696.35971,264.64029 702,259 Z"
       fill="#e6e2f1"
       id="path5" />
    <path
       d="m 555,113 c 5.61912,2.09527 9.88964,5.33668 14.5,9.125 0.8115,0.66588 0.8115,0.66588 1.6394,1.34521 1.32932,1.12842 2.60064,2.32443 3.8606,3.52979 0,0.66 0,1.32 0,2 0.59684,0.26039 1.19367,0.52078 1.80859,0.78906 2.35248,1.29994 3.55192,2.52265 5.25391,4.58594 2.93678,3.48664 5.99301,6.81249 9.125,10.125 5.9949,6.45158 11.21722,13.41906 16.38672,20.53906 1.32937,1.82834 2.67252,3.64559 4.01953,5.46094 10.09003,13.71666 18.62014,28.37397 26.40625,43.5 4.76828,-0.37828 9.38415,-0.76859 14,-2.0625 13.21829,-3.05396 26.25103,-0.74385 39,3.0625 1.33105,0.34233 2.66319,0.68091 4,1 -1.83767,-5.3175 -3.66754,-10.55438 -6.25,-15.5625 C 687,197 687,197 687,195 c 11.88772,2.50142 21.95937,7.89402 31.29297,15.61719 1.66913,1.45365 1.66913,1.45365 3.70703,2.38281 0,-7.26 0,-14.52 0,-22 5.51432,0.91905 6.86887,1.19348 10.875,4.4375 0.78117,0.61746 1.56234,1.23492 2.36719,1.87109 0.58008,0.55817 1.16015,1.11633 1.75781,1.69141 0,0.66 0,1.32 0,2 0.66,0 1.32,0 2,0 0.92007,1.25996 1.78679,2.55916 2.625,3.875 2.59253,3.52907 4.40378,5.03922 8.88672,5.76172 0.82113,0.11988 1.64226,0.23976 2.48828,0.36328 2.43933,0.53335 4.87672,1.07563 7.3125,1.625 4.80506,1.05208 4.80506,1.05208 9.6875,1.375 0.41508,-0.82758 0.83016,-1.65516 1.25781,-2.50781 8.81482,-17.21351 19.419,-33.4405 31.32178,-48.67041 1.41061,-1.80922 2.80176,-3.63204 4.18994,-5.4585 C 813.06716,149.13535 819.8313,141.47614 827,134 c 0.69609,-0.73694 0.69609,-0.73694 1.40625,-1.48877 17.40038,-18.38286 17.40038,-18.38286 27.78125,-20.01123 5.31514,0.69707 8.41801,3.42661 11.8125,7.5 0.72656,2.23438 0.72656,2.23438 1,4 0.66,0 1.32,0 2,0 19.10413,34.54248 30.25792,71.74827 30.09766,111.41797 -0.002,1.35191 -0.003,2.70383 -0.004,4.05574 -0.004,3.51965 -0.0136,7.03925 -0.0247,10.55888 -0.0103,3.60697 -0.0148,7.21395 -0.0198,10.82093 -0.0106,7.04884 -0.0282,14.09765 -0.0488,21.14648 3.96,0.33 7.92,0.66 12,1 -1.64649,8.23243 -6.47218,15.18359 -11.875,21.5 -2.29341,2.38279 -2.29341,2.38279 -3.125,5.5 0.62648,0.20496 1.25297,0.40992 1.89844,0.62109 1.2259,0.40412 1.2259,0.40412 2.47656,0.81641 0.81211,0.26684 1.62422,0.53367 2.46094,0.80859 C 907,313 907,313 909,314 c -0.54273,3.86805 -2.15795,5.42155 -5.0625,7.9375 -0.80438,0.69738 -1.60875,1.39477 -2.4375,2.11328 -2.86149,2.23107 -5.80925,3.96347 -9.06641,5.55078 -1.72716,1.40426 -1.72716,1.40426 -1.87109,4.25 0.51885,3.73388 1.5236,5.0978 4,7.89844 6.95598,8.20732 12.4478,16.73584 17.4375,26.25 0.75515,1.39917 1.51176,2.79756 2.26953,4.19531 0.80631,1.49723 1.6123,2.99462 2.41797,4.49219 0.38076,0.70069 0.76151,1.40137 1.15381,2.12329 6.38961,11.97242 6.38961,11.97242 5.84619,17.18921 -0.22688,0.66 -0.45375,1.32 -0.6875,2 -1.48693,-0.24557 -1.48693,-0.24557 -3.00391,-0.49609 -3.98964,-0.56995 -7.90231,-0.60209 -11.93359,-0.56641 -1.02577,0.007 -1.02577,0.007 -2.07227,0.0137 -1.66345,0.0116 -3.32685,0.0296 -4.99023,0.0488 0.25169,0.55873 0.50338,1.11746 0.7627,1.69312 1.16266,2.58135 2.32498,5.16287 3.4873,7.74438 0.39574,0.8785 0.79148,1.75699 1.19922,2.66211 0.79669,1.76969 1.59119,3.54037 2.38354,5.31201 0.75316,1.67014 1.51813,3.33503 2.29737,4.99317 3.24203,6.98524 4.60826,14.04215 5.86987,21.59521 0.13406,0.78117 0.26812,1.56234 0.40625,2.36719 0.71114,5.07673 0.72313,10.20206 0.78125,15.32031 0.0131,0.72558 0.0263,1.45116 0.0398,2.19873 0.007,4.42836 -0.58877,8.00129 -2.22729,12.11377 -0.68965,-0.33773 -1.3793,-0.67547 -2.08984,-1.02344 -0.93973,-0.44601 -1.87946,-0.89203 -2.84766,-1.35156 -0.91652,-0.44086 -1.83305,-0.88172 -2.77734,-1.33594 C 904.26174,467.71032 900.23133,466.83203 896,466 c 0.0393,1.14662 0.0393,1.14662 0.0793,2.31641 0.4385,14.76051 0.81453,27.94906 -5.07935,41.68359 -0.38414,0.96035 -0.76828,1.9207 -1.16406,2.91016 -0.27586,0.68964 -0.55172,1.37929 -0.83594,2.08984 -5,-5 -5,-5 -6.625,-6.75 -1.47117,-1.50659 -1.47117,-1.50659 -4.375,-2.25 -0.2475,0.86625 -0.495,1.7325 -0.75,2.625 -1.328,3.5856 -2.93631,6.33828 -5.25,9.375 -0.66,0 -1.32,0 -2,0 -0.30938,0.83531 -0.30938,0.83531 -0.625,1.6875 -1.5283,2.57032 -3.36463,4.08481 -5.74219,5.87109 -1.78835,1.48794 -1.78835,1.48794 -3.48437,3.83203 -6.04353,7.34015 -15.3659,12.51821 -23.26563,17.69532 -2.7569,1.83046 -5.44579,3.73302 -8.13281,5.66406 -11.45721,8.0366 -11.45721,8.0366 -17.75,7.25 3.16325,-2.5908 6.39931,-5.01368 9.75659,-7.34717 30.56336,-21.30575 52.12753,-50.06807 59.05591,-87.27783 0.88396,-5.11087 1.56815,-10.22698 2.1875,-15.375 3.87644,1.37798 6.87896,3.1924 10.1875,5.625 3.10356,2.56216 3.10356,2.56216 6.8125,3.375 0.99383,-21.55518 -3.20071,-39.44113 -18,-56 -12.56249,-12.7723 -27.34584,-17.47064 -45,-18 1.07383,-3.31019 2.21133,-6.51032 3.625,-9.6875 3.19052,-8.66703 1.63304,-16.3189 -2.14063,-24.52344 C 835.36339,346.80383 832.96096,343.3977 830,340 c -0.45375,-0.58137 -0.9075,-1.16273 -1.375,-1.76172 C 819.62648,327.8103 805.11698,323.80924 792,322 c 0.93427,-2.40242 1.84537,-4.72254 3.10156,-6.97656 C 796.9236,310.9199 796.50943,306.38108 796,302 793.2184,296.22282 788.83447,292.21477 782.9375,289.6875 772.33475,287.83623 763.40353,288.48137 754,294 c -10.22353,7.47605 -15.46509,15.93839 -19.60156,27.68896 -2.29357,6.38645 -5.35729,12.19329 -8.66407,18.10401 -1.46177,2.70296 -2.67218,5.32937 -3.73437,8.20703 -2.37281,-3.55921 -2.70247,-6.66036 -3.21875,-10.79688 -0.10277,-0.77722 -0.20555,-1.55444 -0.31143,-2.35522 -0.33174,-2.53162 -0.65121,-5.0646 -0.96982,-7.5979 -0.22494,-1.74253 -0.45004,-3.48505 -0.67529,-5.22754 -1.29513,-10.14132 -2.37387,-20.2737 -3.15674,-30.4685 -0.47205,-5.92126 -1.19683,-11.75603 -2.16797,-17.61646 -0.11875,-0.72091 -0.23751,-1.44182 -0.35986,-2.18457 C 710.42491,267.69123 709.40313,263.87674 708,260 c -2.83073,-0.50169 -2.83073,-0.50169 -6,0 -3.49855,4.23713 -4.79169,8.1622 -5.5,13.5 -0.11473,0.78262 -0.22945,1.56524 -0.34766,2.37158 -1.52593,10.96867 -2.53826,22.01139 -3.66748,33.02637 -0.91805,8.92587 -1.86587,17.83929 -3.10986,26.72705 -0.11086,0.82097 -0.22172,1.64194 -0.33594,2.48779 -0.53039,3.6188 -1.09618,6.74871 -3.03906,9.88721 -0.4473,-1.06219 -0.89461,-2.12437 -1.35547,-3.21875 -3.59499,-8.78375 -3.59499,-8.78375 -8.33203,-16.96875 -2.20476,-3.2289 -3.10976,-6.35536 -4.125,-10.125 C 669.26321,307.56406 663.1538,299.32398 654,294 644.89362,289.33392 635.24634,286.7343 625.10156,289.90625 619.78795,292.39551 616.27607,295.13874 613,300 c -1.58221,4.74661 -1.94859,9.56431 -0.10547,14.29687 0.71042,1.37566 1.45186,2.73598 2.23047,4.07422 C 616,320 616,320 616,322 c -1.38059,0.20303 -1.38059,0.20303 -2.78906,0.41016 -15.29843,2.60166 -28.81802,8.5674 -38.3086,21.43359 -4.55248,6.95492 -7.29427,12.41932 -7.27734,20.84375 -5.6e-4,0.70463 -10e-4,1.40927 -0.002,2.13525 0.12562,6.00137 1.53838,10.86538 4.3767,16.17725 0.33,0.66 0.66,1.32 1,2 -1.00418,0.0142 -2.00836,0.0284 -3.04297,0.043 C 553.14391,385.52872 537.78777,391.66969 526,404 c -13.95331,16.55068 -17.55558,34.99072 -17,56 1.7513,-1.10211 3.50099,-2.20677 5.25,-3.3125 0.97453,-0.61488 1.94906,-1.22977 2.95312,-1.86328 2.7514,-1.74077 2.7514,-1.74077 5.03125,-3.55469 C 524,450 524,450 526,450 c 0.12375,1.16531 0.2475,2.33062 0.375,3.53125 3.45444,28.7197 14.69128,55.09117 34.58203,76.25 C 563,532 563,532 564.95703,534.51953 571.97523,543.04067 584.0569,552.02845 594,557 c 0,0.99 0,1.98 0,3 -2.31,-0.66 -4.62,-1.32 -7,-2 0,-0.66 0,-1.32 0,-2 -0.66773,-0.22688 -1.33547,-0.45375 -2.02344,-0.6875 -3.84464,-1.69528 -7.14093,-3.94684 -10.60156,-6.3125 -0.66773,-0.45117 -1.33547,-0.90234 -2.02344,-1.36719 -1.23923,-0.83772 -2.47718,-1.67734 -3.71338,-2.51953 C 567.0981,544.06667 565.54932,543.03288 564,542 c 0,-0.66 0,-1.32 0,-2 -0.71801,-0.2475 -1.43602,-0.495 -2.17578,-0.75 C 549.82187,533.93776 536.1287,520.00806 530.625,508 c -0.20625,-0.66 -0.4125,-1.32 -0.625,-2 -4.4338,2.2169 -6.46637,4.77728 -9,9 -6.63893,-6.00202 -8.6069,-17.94359 -9.271,-26.48584 C 511.48889,481.00376 511.6547,473.5048 512,466 c -1.89825,0.42688 -3.79353,0.86699 -5.6875,1.3125 -1.05574,0.24363 -2.11148,0.48727 -3.19922,0.73828 C 500.019,468.99421 497.74604,470.32992 495,472 c -0.99,0 -1.98,0 -3,0 -4.81741,-23.25096 0.71511,-47.81275 13,-68 0.60268,-1.42112 1.16988,-2.85824 1.6875,-4.3125 0.43313,-1.21688 0.86625,-2.43375 1.3125,-3.6875 -8.5208,0.39729 -16.72049,0.78228 -25,3 1.92557,-6.85618 4.24725,-13.43252 7,-20 0.66,0 1.32,0 2,0 0.12375,-0.7425 0.2475,-1.485 0.375,-2.25 0.57987,-2.55141 1.36209,-4.47676 2.625,-6.75 0.66,0 1.32,0 2,0 0.11473,-0.73348 0.22945,-1.46695 0.34766,-2.22266 2.02169,-8.60735 9.05534,-16.30605 14.1875,-23.38281 0.39977,-0.5522 0.79954,-1.1044 1.21142,-1.67334 0.88539,-1.21581 1.77767,-2.42662 2.67481,-3.63379 2.6557,-3.20598 2.6557,-3.20598 3.57861,-7.0874 -0.66,-0.33 -1.32,-0.66 -2,-1 0,-0.66 0,-1.32 0,-2 -0.53367,-0.0773 -1.06734,-0.15469 -1.61719,-0.23438 -3.33406,-1.07127 -5.70143,-2.93325 -8.50781,-5.01562 -1.05445,-0.76828 -2.10891,-1.53656 -3.19531,-2.32813 C 501,319 501,319 499,314 c 4.95,-1.98 4.95,-1.98 10,-4 -0.84874,-3.39497 -1.33157,-4.79246 -3.21484,-7.49609 -0.43893,-0.64131 -0.87786,-1.28262 -1.33008,-1.94336 -0.45955,-0.65936 -0.9191,-1.31871 -1.39258,-1.99805 C 496,288.40329 496,288.40329 496,283 c 0.78246,-0.0606 1.56492,-0.12117 2.37109,-0.18359 1.01192,-0.0838 2.02383,-0.16758 3.06641,-0.25391 1.00934,-0.0812 2.01867,-0.16242 3.05859,-0.24609 2.44032,-0.0485 2.44032,-0.0485 3.50391,-1.31641 0.10177,-1.62235 0.1296,-3.24947 0.125,-4.875 0.003,-0.8843 0.005,-1.76859 0.008,-2.67969 -0.10911,-2.83034 -0.33946,-5.58005 -0.62891,-8.39453 C 505.73523,246.30534 506.2791,226.62857 509,208 c 0.12891,-0.90089 0.25781,-1.80179 0.39062,-2.72998 C 517.46489,150.53511 517.46489,150.53511 531,137 c 0.71455,-1.6955 1.42776,-3.3916 2.12988,-5.09229 1.40776,-3.08647 3.30284,-5.82942 5.24512,-8.59521 0.37383,-0.55494 0.74766,-1.10988 1.13281,-1.68164 C 543.79468,115.45747 547.23479,111.94709 555,113 Z"
       fill="#2e0567"
       id="path6" />
    <path
       d="m 745,399 c 4.29908,3.36576 8.14973,7.13816 12,11 0.71414,0.65484 1.42828,1.30969 2.16406,1.98437 C 769.0598,421.20988 775.98588,433.01159 782,445 c 0.99,-0.33 1.98,-0.66 3,-1 12.96041,-3.14261 24.7794,-1.19623 36.33594,5.31641 9.67967,6.50874 14.28388,16.57137 16.66406,27.68359 1.57855,9.58521 -1.81247,21.38746 -7.1875,29.3125 -1.24213,1.58542 -2.51374,3.14813 -3.8125,4.6875 -0.64711,0.81855 -1.29422,1.63711 -1.96094,2.48047 -17.6818,21.19844 -50.79117,35.7117 -77.85547,38.98047 -3.06312,0.24452 -6.11282,0.43549 -9.18359,0.53906 1.67989,-2.90075 3.28819,-5.33141 5.5,-7.875 2.69016,-3.12092 4.04152,-6.28688 5.5,-10.125 -0.72703,0.4473 -1.45406,0.89461 -2.20313,1.35547 C 728.55278,547.32532 708.95162,553.47709 687.625,548.5625 677.76569,545.67558 668.5309,540.68727 660,535 c 2.02525,7.54864 6.41952,12.7384 12,18 -8.06049,0.36594 -15.19408,-0.58927 -23,-2.5625 -1.08942,-0.27103 -2.17884,-0.54205 -3.30127,-0.82129 C 626.24835,544.62747 602.06109,537.04209 588,522 c -0.89719,-0.85465 -0.89719,-0.85465 -1.8125,-1.72656 -10.8561,-10.98332 -15.45755,-24.91441 -15.50879,-39.98316 0.0913,-6.47043 1.0132,-11.63563 4.32129,-17.29028 0.59813,-1.05188 1.19625,-2.10375 1.8125,-3.1875 6.46978,-8.31828 13.99134,-14.58335 24.60547,-16.53516 8.76665,-0.94165 17.08516,-0.62131 25.58203,1.72266 0.26812,-0.88559 0.53625,-1.77117 0.8125,-2.68359 7.78651,-21.74588 29.04486,-40.88511 49.26831,-50.70142 C 699.72969,381.11917 724.87138,384.77152 745,399 Z"
       fill="#fdfcfd"
       id="path7" />
    <path
       d="m 587,648 c 7.19071,2.5778 11.62327,8.60757 16.375,14.3125 0.97225,1.15659 1.94491,2.31284 2.91797,3.46875 0.46583,0.5543 0.93167,1.10859 1.41162,1.67969 2.71551,3.22627 5.46069,6.41686 8.29541,9.53906 0.58781,0.65355 1.17562,1.30711 1.78125,1.98047 5.39836,5.71916 11.57472,9.85594 18.21875,14.01953 0.0735,-1.41152 0.0735,-1.41152 0.14844,-2.85156 0.0748,-1.24524 0.14953,-2.49047 0.22656,-3.77344 0.0696,-1.22977 0.13922,-2.45953 0.21094,-3.72656 0.39551,-3.48498 1.17668,-6.37894 2.41406,-9.64844 0.66,0 1.32,0 2,0 1.20723,1.53703 2.33918,3.13335 3.4375,4.75 11.90696,16.72132 26.84502,28.10297 44.5625,38.25 0.68691,0.39623 1.37382,0.79245 2.08154,1.20068 1.87555,1.06586 3.76535,2.09617 5.66846,3.11182 1.60102,0.86045 1.60102,0.86045 3.23438,1.73828 5.96477,1.87752 11.19448,-2.02625 16.4519,-4.73096 C 725.12526,712.75674 733.43579,708.31194 741,702 c 0.83273,-0.6948 1.66547,-1.38961 2.52344,-2.10547 8.56428,-7.44433 16.44457,-15.55946 22.32031,-25.3125 0.38156,-0.52207 0.76312,-1.04414 1.15625,-1.58203 0.66,0 1.32,0 2,0 3.13903,6.80123 3.33452,12.56621 3,20 12.2618,-7.24985 21.25021,-15.82482 30,-27 13.71395,-17.31329 13.71395,-17.31329 21.58594,-18.33594 4.41004,-0.0618 7.69179,0.0283 11.78906,1.77344 8.79468,8.58528 12.56095,22.47438 12.92578,34.46094 0.0639,6.70444 -0.0528,13.4017 -0.30078,20.10156 -0.0362,0.9821 -0.0725,1.96421 -0.10986,2.97607 -0.13655,2.62595 -0.36452,5.22183 -0.64014,7.83643 -0.0421,0.76296 -0.0843,1.52593 -0.12769,2.31201 -0.33316,2.4292 -0.72543,3.85091 -2.12231,5.87549 -3.75719,2.36181 -7.7978,3.62943 -12,5 -1.8657,0.66525 -3.7314,1.33051 -5.59688,1.9964 -3.37074,1.18787 -6.76101,2.31598 -10.15312,3.4411 -1.08198,0.35942 -1.08198,0.35942 -2.18582,0.7261 C 793.68634,741.23363 772.36285,746.18717 750,749 c -0.65345,0.0872 -1.30691,0.17441 -1.98016,0.26425 -14.49879,1.90754 -28.91147,2.09546 -43.51984,2.04825 -1.19787,-0.002 -2.39574,-0.004 -3.62991,-0.007 C 683.72362,751.25641 666.93241,750.93322 650,748 c -1.18288,-0.19336 -2.36575,-0.38672 -3.58447,-0.58594 C 574.68462,735.50028 574.68462,735.50028 563,722 c -0.80894,-2.89466 -1.34898,-5.48346 -1.75,-8.4375 -0.12069,-0.83966 -0.24138,-1.67933 -0.36572,-2.54443 C 558.42901,692.30319 558.04076,670.2408 569,654 c 5.40075,-5.91146 10.29274,-6.65316 18,-6 z"
       fill="#e6e1f1"
       id="path8" />
    <path
       d="m 877,399 c 4.76508,3.75868 8.44635,7.45358 11.625,12.625 0.56956,0.90806 0.56956,0.90806 1.15063,1.83447 6.99081,11.43569 10.60191,22.67541 10.34937,36.04053 -0.009,0.91781 -0.0181,1.83562 -0.0273,2.78125 -0.0233,2.23987 -0.0561,4.47916 -0.0977,6.71875 -4.8807,0 -7.36449,-1.87017 -11.25,-4.5 -0.64969,-0.42926 -1.29938,-0.85852 -1.96875,-1.30078 C 885.18209,452.14095 883.5903,451.07154 882,450 c 0.0464,1.69576 0.0464,1.69576 0.0937,3.42578 -0.0551,31.37661 -18.22606,61.36715 -39.51123,83.01465 C 820.10722,558.5898 790.84514,572.84392 761,582 c -1.03689,0.31928 -1.03689,0.31928 -2.09473,0.64502 C 748.44993,585.8019 737.80299,587.55447 727,589 c -0.68683,0.0964 -1.37366,0.19288 -2.0813,0.29224 -50.35591,6.42582 -104.36569,-9.65635 -144.41284,-40.43116 C 577.63667,546.61481 574.81193,544.31734 572,542 c -0.84562,-0.68965 -1.69125,-1.3793 -2.5625,-2.08984 C 563.51263,534.88019 558.73249,529.14631 554,523 c -0.66902,-0.85336 -1.33805,-1.70672 -2.02734,-2.58594 C 536.32074,499.77213 527.12744,475.9311 526,450 c -1.21236,0.83145 -1.21236,0.83145 -2.44922,1.67969 -1.06863,0.72445 -2.13726,1.4489 -3.23828,2.19531 -1.05574,0.7193 -2.11148,1.43859 -3.19922,2.17969 C 514.43021,457.73118 511.9716,458.9525 509,460 c -4.36401,-13.09203 0.10908,-27.63904 5.67969,-39.60938 C 517.90768,414.16418 521.53608,408.41229 526,403 c 0.33,0.99 0.66,1.98 1,3 -0.33,0.66 -0.66,1.32 -1,2 -1.01781,13.1667 -0.24592,26.21306 3,39 0.26684,1.09055 0.53367,2.18109 0.80859,3.30469 9.09128,33.05184 34.02856,58.92398 63.15088,75.53027 2.13975,1.22169 4.26738,2.46315 6.396,3.7041 14.25028,8.21161 28.6632,14.43102 44.64453,18.46094 1.03737,0.27288 1.03737,0.27288 2.0957,0.55127 8.42809,2.21172 16.11962,4.00649 24.9043,3.44873 -0.86625,-0.61875 -1.7325,-1.2375 -2.625,-1.875 -4.21107,-3.4975 -7.19749,-8.12604 -9.375,-13.125 0.33,-0.99 0.66,-1.98 1,-3 0.87141,0.51949 1.74281,1.03898 2.64063,1.57422 19.34303,11.38662 36.1511,16.4772 58.71875,11.47265 8.53909,-2.45544 16.30997,-6.66626 23.93359,-11.16406 C 747,535 747,535 749,535 c -0.82298,6.99536 -5.58327,11.84715 -10,17 29.4858,-1.09817 62.41951,-15.74969 83.41797,-36.375 3.9266,-4.24338 7.0518,-8.7923 10.16406,-13.64844 1.61768,-2.25494 3.53217,-3.81874 5.73047,-5.49609 4.11403,-3.6093 7.32281,-8.18952 10.6875,-12.48047 0.74637,-0.9191 1.49273,-1.8382 2.26172,-2.78516 C 870.1164,457.29277 877.57097,429.03921 877,399 Z"
       fill="#c1b4d9"
       id="path9" />
    <path
       d="m 656.75,294.75 c 9.20544,6.57531 14.744,15.39476 17.6875,26.25 1.02197,3.70679 2.39312,6.61856 4.4375,9.875 5.63307,9.07236 9.29716,16.08926 6.98828,26.89844 C 680.57276,377.54706 671.45314,391.76009 654,403 c -14.59085,8.17889 -30.99807,12.85617 -47.5,8.5625 -12.23705,-4.241 -20.74291,-12.2979 -29.03906,-21.83984 C 575.10599,386.89349 575.10599,386.89349 572,385 c -5.38374,-8.76563 -6.36065,-18.03524 -5,-28 3.45849,-11.65846 12.665,-21.66602 22.875,-28 8.02169,-4.26642 16.91073,-7.85714 26.125,-7 -0.36094,-0.61746 -0.72187,-1.23492 -1.09375,-1.87109 C 611.70857,314.29313 609.85548,309.67421 611,303 c 2.2413,-6.72389 7.24696,-10.34818 13.125,-13.875 11.14936,-4.17476 22.99568,-0.32826 32.625,5.625 z"
       fill="#bfb2d8"
       id="path10" />
    <path
       d="m 785.99609,289.88281 c 4.88349,2.72257 8.92816,6.89872 11.00391,12.11719 1.18744,7.93713 -0.49163,13.47895 -5,20 0.66644,0.0258 1.33289,0.0516 2.01953,0.0781 14.90899,0.91747 27.31159,7.28048 37.64453,17.98828 6.2662,7.86943 10.86011,17.46072 10.73828,27.61328 -0.82894,6.84077 -3.15606,15.32324 -8.33594,20.10547 -2.0039,1.15234 -2.0039,1.15234 -4.0625,2.125 -2.41905,1.31562 -3.74979,2.85112 -5.5039,4.96484 -8.05648,9.65686 -18.34921,17.11257 -31.17188,18.53125 -18.73161,0.71877 -36.35103,-6.60893 -50.64062,-18.59375 C 733.55426,386.05481 727.87556,376.0028 724,364 c -0.4125,-1.2375 -0.825,-2.475 -1.25,-3.75 -2.04038,-8.84163 -1.77663,-13.84971 2.5,-22 0.40863,-0.82371 0.81726,-1.64742 1.23828,-2.49609 1.62276,-3.24031 3.28679,-6.39068 5.19531,-9.47266 1.50989,-2.61654 2.28925,-5.13272 3.12891,-8.03125 3.34876,-10.31166 9.77959,-19.50459 19.26171,-25.04688 10.29645,-5.21653 20.69493,-7.66222 31.92188,-3.32031 z"
       fill="#bfb2d9"
       id="path11" />
    <path
       d="m 552.8125,133.8125 c 22.21205,8.27508 38.10861,43.26078 48.5,63 0.50402,0.95471 1.00805,1.90942 1.52734,2.89307 8.48335,16.34008 8.48335,16.34008 8.16016,23.29443 -0.60771,0.32573 -1.21542,0.65146 -1.84155,0.98706 -16.83079,9.08834 -32.03642,18.9876 -46.04908,32.05982 -1.91937,1.77719 -3.89834,3.4225 -5.92187,5.07812 -10.04326,8.80561 -18.04437,19.6081 -25.16406,30.82812 C 530.45895,294.30891 529.10391,296.1507 527,298 509.42335,259.74198 515.85935,205.4953 530.03272,167.21045 542.75794,134.4828 542.75794,134.4828 552.8125,133.8125 Z"
       fill="#ccc0e1"
       id="path12" />
    <path
       d="m 857.0625,133.625 c 11.72568,5.48861 16.65445,22.14938 20.89062,33.47266 8.43857,23.65004 12.48289,48.03383 12.48438,73.08984 0.003,1.3012 0.003,1.3012 0.006,2.62869 -0.008,18.93389 -2.06177,37.23564 -8.44376,55.18381 -3.22838,-3.01219 -5.57565,-6.19257 -8,-9.875 -10.66453,-15.76946 -24.05243,-29.39942 -39,-41.125 -0.99644,-0.8134 -1.99289,-1.6268 -3.01953,-2.46484 -7.59632,-6.12722 -15.59759,-10.97599 -24.19336,-15.57618 -2.44502,-1.31202 -4.86586,-2.66619 -7.28711,-4.02148 -1.1664,-0.64631 -2.33294,-1.29238 -3.5,-1.9375 0.54144,-5.65916 2.07641,-10.16163 4.4375,-15.3125 0.352,-0.77763 0.70399,-1.55525 1.06665,-2.35645 8.61901,-18.67617 31.82702,-68.92263 54.55831,-71.70605 z"
       fill="#ccc0e1"
       id="path13" />
    <path
       d="m 702.6875,425.5625 c 1.71594,0.0114 1.71594,0.0114 3.46655,0.0229 13.26561,0.2574 25.80786,2.28145 35.49829,12.08642 3.91834,5.07973 4.13591,10.46697 3.89453,16.72266 C 744.16046,463.53496 739.26139,471.35995 732,477 c -13.94572,10 -13.94572,10 -22,10 0.495,6.93 0.495,6.93 1,14 13.96184,6.87729 28.20438,13.51033 44.07422,8.74609 C 768.89429,504.39187 775.03861,495.00942 781,482 c 2.83747,-5.83747 2.83747,-5.83747 4,-7 5.33043,-0.35536 8.65723,-0.44867 13,3 2,3 2,3 1.75,6.625 -0.37125,1.67062 -0.37125,1.67062 -0.75,3.375 -2.70879,1.3544 -5.00933,1.06502 -8,1 -0.26555,0.87914 -0.53109,1.75828 -0.80469,2.66406 C 786.02892,503.29184 777.07835,513.50984 766,519 c -15.27941,6.45179 -29.67679,6.44326 -45.34766,0.79297 -4.1445,-1.69992 -8.11006,-3.49171 -12.02734,-5.66797 -3.39095,-1.45326 -5.05467,-0.95764 -8.625,-0.125 -1.96408,0.88045 -3.90106,1.82296 -5.8125,2.8125 -15.08462,7.15442 -31.15383,9.7699 -47.1875,4.1875 -13.31787,-5.87553 -21.08426,-14.50288 -28,-27 -0.72516,-1.97954 -1.41433,-3.9748 -2,-6 -0.94875,0.20625 -1.8975,0.4125 -2.875,0.625 -1.03125,0.12375 -2.0625,0.2475 -3.125,0.375 -2,-2 -2,-2 -2.5,-5.3125 0.5,-3.6875 0.5,-3.6875 3,-6.625 3.8447,-2.76709 6.88208,-2.66813 11.5,-2.0625 3.35333,2.39165 4.30112,5.88884 5.75,9.625 4.31758,10.54261 10.45876,18.51545 20.78125,23.62891 13.10756,5.40498 26.01628,2.66243 38.79687,-2.63282 1.87825,-0.86291 3.74613,-1.74912 5.59766,-2.66797 C 696,502 696,502 698,502 c 0,-4.95 0,-9.9 0,-15 -1.98,-0.33 -3.96,-0.66 -6,-1 -12.71525,-4.66156 -22.48688,-13.76862 -28.375,-25.8125 -1.22534,-6.24925 -1.53077,-12.56553 0.5625,-18.625 9.13649,-12.9171 23.473,-16.13907 38.5,-16 z"
       fill="#23084a"
       id="path14" />
    <path
       d="m 552,170 c 7.86251,1.56909 12.27867,8.29146 16.52222,14.57324 6.81456,10.37779 12.52427,21.10335 17.47778,32.48926 0.38607,0.88043 0.77215,1.76086 1.16992,2.66797 2.03164,4.80539 3.37814,9.06512 3.83008,14.26953 -0.77694,0.5576 -0.77694,0.5576 -1.56958,1.12646 -9.07816,6.53838 -18.02767,13.00504 -26.15308,20.71729 -2.07127,1.96114 -4.20484,3.77749 -6.40234,5.59375 -4.94619,4.26891 -8.8661,9.43074 -12.875,14.5625 -1.58923,-2.92208 -2.5142,-5.64791 -3.25391,-8.88672 -0.21462,-0.93908 -0.42925,-1.87816 -0.65039,-2.8457 -0.2172,-0.97518 -0.43441,-1.95035 -0.6582,-2.95508 -0.22107,-0.95584 -0.44215,-1.91168 -0.66992,-2.89648 C 532.81314,232.02579 533.43112,201.46002 546,177 c 1.85009,-2.66581 3.66923,-4.72472 6,-7 z"
       fill="#8e70b9"
       id="path15" />
    <path
       d="m 858,171 c 11.55461,11.69135 14.56161,35.27126 14.50464,50.97656 -0.0206,1.46617 -0.043,2.93232 -0.0671,4.39844 -0.006,0.75926 -0.0123,1.51852 -0.0186,2.30078 C 872.29015,244.25969 870.73465,259.0573 866,274 c -3,0 -3,0 -4.98047,-1.90625 -0.72832,-0.85594 -1.45664,-1.71188 -2.20703,-2.59375 C 851.48284,261.10807 843.74916,253.90603 835,247 c -0.81622,-0.64751 -0.81622,-0.64751 -1.64893,-1.30811 C 827.44228,241.01615 821.6158,236.63204 815,233 c 0.99,-0.495 0.99,-0.495 2,-1 0.71508,-1.93707 0.71508,-1.93707 1.27734,-4.30469 1.78068,-6.26968 4.44139,-11.96953 7.28516,-17.82031 0.79301,-1.63945 0.79301,-1.63945 1.60205,-3.31201 C 845.97188,168.29981 845.97188,168.29981 858,171 Z"
       fill="#8e70b9"
       id="path16" />
    <path
       d="m 803,348 c 6.86238,4.45861 15.77485,11.17697 18.78516,19.05469 C 822.125,368.9375 822.125,368.9375 822,372 c -2,2 -2,2 -4.75,2.5 -4.70251,-0.72346 -6.15789,-2.96616 -9.25,-6.5 -0.10957,0.79664 -0.21914,1.59328 -0.33203,2.41406 -1.49794,10.01063 -3.70773,15.10573 -11.31641,21.85156 C 790.56465,396.53371 784.95874,396.62046 778,396 c -5.74702,-1.2283 -10.30915,-3.51193 -15,-7 -0.30938,0.63937 -0.61875,1.27875 -0.9375,1.9375 C 761,393 761,393 760,394 c -1.66617,0.0406 -3.33388,0.0427 -5,0 -2.04783,-4.21803 -2.35064,-8.07489 -2.3125,-12.6875 0.006,-0.71044 0.0113,-1.42087 0.0171,-2.15283 0.24451,-10.64953 3.81357,-19.89855 10.88916,-27.97998 C 775.23259,340.25455 789.50239,341.08332 803,348 Z"
       fill="#22054a"
       id="path17" />
    <path
       d="m 638.25,346 c 9.0437,6.38273 14.24792,15.37956 16.75,26 0.27046,3.25551 0.28028,6.48493 0.25,9.75 0.0116,1.27424 0.0116,1.27424 0.0234,2.57422 -0.003,0.81597 -0.005,1.63195 -0.008,2.47265 -0.002,0.73574 -0.005,1.47147 -0.007,2.2295 C 655,391 655,391 653,394 c -2.875,-0.3125 -2.875,-0.3125 -6,-1 -0.66,-0.99 -1.32,-1.98 -2,-3 -0.5659,0.28617 -1.1318,0.57234 -1.71484,0.86719 -8.577,4.25184 -16.44756,7.36268 -25.99219,4.25 -7.20849,-3.26382 -11.40048,-7.59324 -15.10547,-14.49219 -1.38325,-4.22256 -1.8971,-8.2089 -2.1875,-12.625 -0.92813,1.20656 -0.92813,1.20656 -1.875,2.4375 C 596,373 596,373 594,374 c -3.0625,0.125 -3.0625,0.125 -6,0 -1,-1 -1,-1 -1.5625,-3.9375 0.1095,-5.93749 4.66183,-10.02275 8.5625,-14.0625 3.16609,-2.95333 6.43176,-5.54966 10,-8 0.64969,-0.45633 1.29938,-0.91266 1.96875,-1.38281 C 615.19609,341.9485 629.82662,341.7157 638.25,346 Z"
       fill="#22064b"
       id="path18" />
    <path
       d="m 656.75,294.75 c 8.60027,6.14305 13.92402,14.27207 17.25,24.25 0.17431,2.6204 0.27684,5.19062 0.3125,7.8125 0.029,0.69932 0.058,1.39863 0.0879,2.11914 0.0626,5.15079 -1.05597,7.96245 -4.40039,12.06836 -4.88644,4.30472 -7.89936,5.48032 -14.34375,5.40625 -5.32635,-0.81462 -8.64287,-4.51209 -12.4375,-8.08203 -6.94412,-6.39978 -15.02959,-10.82208 -23.50781,-14.91016 -3.95883,-2.06498 -5.82689,-4.82277 -7.96094,-8.66406 -1.40425,-5.1489 -1.37635,-9.87095 0.3125,-14.9375 10.99255,-15.95693 29.57697,-14.40448 44.6875,-5.0625 z"
       fill="#e6e1f1"
       id="path19" />
    <path
       d="m 788,291 c 4.59885,3.65437 8.48747,7.52561 9.37109,13.51562 0.16406,6.75533 -0.78746,11.37001 -5.37109,16.48438 -2.84294,2.50465 -5.94271,3.94889 -9.38184,5.49951 -8.34723,3.8088 -14.49768,8.47902 -20.94629,14.96143 -4.64012,4.40947 -7.93408,4.99375 -14.20312,4.85547 -4.90117,-0.62816 -7.58806,-3.34051 -10.78125,-6.87891 C 732.6888,333.6616 733.40626,326.7407 734,320 736.7974,308.68757 744.45751,299.80798 753.92187,293.25 764.0997,287.128 777.16636,284.96019 788,291 Z"
       fill="#e6e1f1"
       id="path20" />
    <path
       d="m 588,573 c 1.05832,0.53367 2.11664,1.06734 3.20703,1.61719 C 621.75463,589.71945 654.9257,600.25207 689,603 c 0,6.27 0,12.54 0,19 -36.62275,-2.67319 -68.78124,-14.89421 -95.125,-40.875 -0.58161,-0.5721 -1.16322,-1.1442 -1.76245,-1.73364 C 588,575.24535 588,575.24535 588,573 Z"
       fill="#7e51ad"
       id="path21" />
    <path
       d="m 819,573 c 0.99,0.495 0.99,0.495 2,1 -14.06647,16.32443 -31.02864,28.8559 -51,37 -0.65162,0.26796 -1.30324,0.53593 -1.97461,0.81201 C 752.69812,617.98239 736.47672,621.12124 720,622 c 0,-5.94 0,-11.88 0,-18 2.3809,-0.4125 4.7618,-0.825 7.21484,-1.25 C 746.02506,599.42578 763.9937,595.50246 782,589 c 1.71565,-0.59519 3.43178,-1.18898 5.14844,-1.78125 C 804.21946,582.05046 804.21946,582.05046 819,573 Z"
       fill="#7f52ad"
       id="path22" />
    <path
       d="m 659,534 c 0.64324,0.36352 1.28648,0.72703 1.94922,1.10156 20.12835,11.19837 37.26468,17.07799 60.41015,11.94531 8.5391,-2.45544 16.30998,-6.66626 23.9336,-11.16406 C 747,535 747,535 749,535 c -0.84229,7.15944 -5.28571,11.79544 -10.59375,16.26172 -14.11037,10.19337 -30.67913,11.80711 -47.5752,9.43359 C 683.11238,559.1153 676.44224,555.40784 670,551 c -0.9075,-0.5775 -1.815,-1.155 -2.75,-1.75 -3.53399,-3.53399 -6.06995,-7.76254 -8.25,-12.25 0,-0.99 0,-1.98 0,-3 z"
       fill="#230a48"
       id="path23" />
    <path
       d="m 680,646 c 5.61,0 11.22,0 17,0 0,1.98 0,3.96 0,6 -1.32,0 -2.64,0 -4,0 0.21656,0.67547 0.43313,1.35094 0.65625,2.04687 0.27844,0.89204 0.55687,1.78407 0.84375,2.70313 0.27844,0.88172 0.55687,1.76344 0.84375,2.67187 C 696,662 696,662 696,666 c 0.66,0 1.32,0 2,0 0.10312,-1.09312 0.20625,-2.18625 0.3125,-3.3125 1.69325,-13.69325 1.69325,-13.69325 4.6875,-16.6875 1.99958,-0.0408 4.00045,-0.0425 6,0 2.54323,6.93608 3.94916,13.69354 5,21 0.66,0 1.32,0 2,0 0.049,-0.58008 0.098,-1.16016 0.14844,-1.75781 0.44805,-4.68142 1.14958,-8.81704 2.85156,-13.24219 -0.99,0 -1.98,0 -3,0 0,-1.98 0,-3.96 0,-6 3.96,0 7.92,0 12,0 0,1.98 0,3.96 0,6 -1.32,0 -2.64,0 -4,0 -0.11215,0.95004 -0.2243,1.90008 -0.33984,2.87891 -0.6839,4.78725 -1.9573,9.39766 -3.22266,14.05859 -0.23397,0.87463 -0.46793,1.74926 -0.70898,2.65039 -0.57257,2.13834 -1.15004,4.27536 -1.72852,6.41211 -3.3,0 -6.6,0 -10,0 -1.32,-4.62 -2.64,-9.24 -4,-14 -1.32,4.62 -2.64,9.24 -4,14 -3.3,0 -6.6,0 -10,0 -1.00381,-3.95738 -2.0024,-7.91605 -3,-11.875 -0.28617,-1.12793 -0.57234,-2.25586 -0.86719,-3.41797 -0.40605,-1.61455 -0.40605,-1.61455 -0.82031,-3.26172 -0.37705,-1.49249 -0.37705,-1.49249 -0.76172,-3.01513 C 684,654 684,654 684,652 c -1.32,0 -2.64,0 -4,0 0,-1.98 0,-3.96 0,-6 z"
       fill="#d6b996"
       id="path24" />
    <path
       d="m 799,225 c 25.95534,3.66601 55.02283,35.11145 70.23218,54.88989 10.9144,14.52331 10.9144,14.52331 10.52173,18.77417 -0.86575,2.68248 -1.75698,4.33901 -3.75391,6.33594 -1.32,0 -2.64,0 -4,0 -1.70313,-2.11719 -1.70313,-2.11719 -3.25,-4.875 -0.78117,-1.35738 -0.78117,-1.35738 -1.57813,-2.74219 C 866,295 866,295 866,293 c -0.66,0 -1.32,0 -2,0 -1.2546,-1.72395 -2.42732,-3.50768 -3.5625,-5.3125 C 854.39611,278.40732 847.30777,270.17636 839.75,262.09375 838,260 838,260 837,257 c -0.99,-0.33 -1.98,-0.66 -3,-1 -1.70316,-1.62936 -3.36489,-3.30237 -5,-5 -1.82095,-1.72153 -3.65449,-3.42983 -5.5,-5.125 -0.91781,-0.8482 -1.83563,-1.69641 -2.78125,-2.57031 -2.62718,-2.35853 -2.62718,-2.35853 -5.5625,-3.98438 C 814.08891,238.66676 814.08891,238.66676 813,238 c 0,-0.66 0,-1.32 0,-2 -0.57234,-0.26813 -1.14469,-0.53625 -1.73438,-0.8125 -2.34447,-1.22883 -4.38967,-2.61272 -6.51562,-4.1875 -0.70641,-0.51563 -1.41281,-1.03125 -2.14063,-1.5625 C 801.81273,228.72594 801.81273,228.72594 801,228 c 0,-0.66 0,-1.32 0,-2 -0.66,-0.33 -1.32,-0.66 -2,-1 z"
       fill="#21044b"
       id="path25" />
    <path
       d="m 610,224 c 0,0.66 0,1.32 0,2 -1.32,0.33 -2.64,0.66 -4,1 0,0.66 0,1.32 0,2 -1.44946,1.30933 -1.44946,1.30933 -3.47266,2.79297 -0.73541,0.54849 -1.47082,1.09699 -2.22851,1.66211 -1.16886,0.85755 -1.16886,0.85755 -2.36133,1.73242 -5.18307,3.80624 -9.94374,7.65622 -14.41675,12.28394 -1.82617,1.83554 -3.77799,3.35528 -5.89575,4.84106 -2.80754,1.91118 -2.80754,1.91118 -4.625,4.6875 -0.66,0 -1.32,0 -2,0 -0.2475,0.56848 -0.495,1.13695 -0.75,1.72266 -1.45096,2.64346 -3.17943,4.52225 -5.25,6.71484 -8.54231,9.3487 -15.76548,19.46934 -22.67578,30.05469 -2.34225,3.57633 -4.8207,7.04276 -7.32422,10.50781 -3.34164,-1.38275 -5.25767,-2.79044 -7,-6 0.99618,-10.632 11.84574,-20.72497 18.67139,-28.48779 1.2241,-1.39326 2.43519,-2.79794 3.64502,-4.20362 C 562.16263,253.76702 590.56786,224 610,224 Z"
       fill="#20034a"
       id="path26" />
    <path
       d="m 703.875,434.6875 c 1.17865,0.004 1.17865,0.004 2.3811,0.008 7.28791,0.13091 13.60283,1.21016 19.7439,5.3042 0.1875,2.625 0.1875,2.625 0,5 -1.43672,0.64758 -2.8744,1.293 -4.3125,1.9375 -0.80051,0.35965 -1.60102,0.7193 -2.42578,1.08984 C 710.039,451.99359 696.47474,451.05119 687,448 c -3.0625,-1.3125 -3.0625,-1.3125 -5,-3 -0.625,-2.5 -0.625,-2.5 0,-5 5.95686,-5.0261 14.41367,-5.36529 21.875,-5.3125 z"
       fill="#754fa4"
       id="path27" />
    <path
       d="m 699,604 c 3.3,0 6.6,0 10,0 0.0494,4.09339 0.0857,8.18666 0.10986,12.28027 0.0101,1.39294 0.0237,2.78585 0.041,4.17871 0.0242,2.00056 0.0345,4.00128 0.0444,6.00196 0.0105,1.20446 0.021,2.40893 0.0317,3.6499 C 709,633 709,633 707,635 c -3,0.25 -3,0.25 -6,0 -2,-2 -2,-2 -2.22705,-4.88916 0.0105,-1.20447 0.0209,-2.40894 0.0317,-3.6499 0.01,-1.95293 0.01,-1.95293 0.0195,-3.94532 0.0167,-1.38021 0.0336,-2.76041 0.0508,-4.14062 0.01,-1.38802 0.0192,-2.77604 0.0273,-4.16406 0.0236,-3.40382 0.0566,-6.8073 0.0977,-10.21094 z"
       fill="#dcbd96"
       id="path28" />
    <path
       d="m 716,646 c 3.96,0 7.92,0 12,0 0,1.98 0,3.96 0,6 -1.32,0 -2.64,0 -4,0 -0.11215,0.95004 -0.2243,1.90008 -0.33984,2.87891 -0.6839,4.78725 -1.9573,9.39766 -3.22266,14.05859 -0.23396,0.87463 -0.46793,1.74926 -0.70898,2.65039 -0.57257,2.13834 -1.15004,4.27536 -1.72852,6.41211 -3.3,0 -6.6,0 -10,0 -1.75781,-6.73828 -1.75781,-6.73828 -2,-9 0.99,-1.485 0.99,-1.485 2,-3 0.33,3.3 0.66,6.6 1,10 2.64,0.33 5.28,0.66 8,1 -0.0232,-0.68707 -0.0464,-1.37414 -0.0703,-2.08203 -0.0181,-0.90106 -0.0361,-1.80211 -0.0547,-2.73047 -0.0232,-0.89332 -0.0464,-1.78664 -0.0703,-2.70703 C 717,667 717,667 719,664 c -0.66,0 -1.32,0 -2,0 0.14168,-1.43791 0.28851,-2.87532 0.4375,-4.3125 0.0812,-0.80051 0.16242,-1.60102 0.24609,-2.42578 C 718,655 718,655 719,652 c -0.99,0 -1.98,0 -3,0 0,-1.98 0,-3.96 0,-6 z"
       fill="#d3b59f"
       id="path29" />
    <path
       d="M 776.5625,357.0625 C 780,358 780,358 781.9375,359.125 c 1.73373,3.05952 1.48395,5.44318 1.0625,8.875 -1.625,2.4375 -1.625,2.4375 -4,4 -3.63633,0.60605 -5.28315,0.47161 -8.375,-1.5625 -2.24841,-3.37261 -2.19284,-5.46262 -1.625,-9.4375 2.26849,-3.62958 3.2538,-4.01309 7.5625,-3.9375 z"
       fill="#f5f1f8"
       id="path30" />
    <path
       d="m 633.125,357.0625 c 4.36689,1.42399 4.36689,1.42399 5.875,3.9375 0.5003,3.93095 0.59961,6.10058 -1.625,9.4375 -3.09185,2.03411 -4.73867,2.16855 -8.375,1.5625 -2.375,-1.5625 -2.375,-1.5625 -4,-4 -0.5625,-3.5 -0.5625,-3.5 0,-7 2.67457,-3.14655 3.96908,-4.02062 8.125,-3.9375 z"
       fill="#f6f3f9"
       id="path31" />
    <path
       d="m 710,603 c 3.31823,4.97735 2.05075,10.61388 1.8125,16.4375 -0.0316,1.24072 -0.0632,2.48144 -0.0957,3.75977 -0.0445,1.19173 -0.089,2.38347 -0.13477,3.61132 -0.0389,1.09112 -0.0778,2.18222 -0.11792,3.3064 -0.51293,3.18846 -1.17046,4.63273 -3.46411,6.88501 -3.4375,0.5625 -3.4375,0.5625 -7,0 -2.739,-2.65457 -3.89241,-4.31214 -4.48584,-8.1062 0.008,-1.13413 0.0164,-2.26827 0.0249,-3.43677 0.004,-1.23814 0.008,-2.47629 0.0117,-3.75195 0.0245,-1.28455 0.049,-2.5691 0.0742,-3.89258 10e-4,-1.29615 0.003,-2.59231 0.004,-3.92773 0.0903,-9.60395 0.0903,-9.60395 2.3711,-11.88477 4.21528,-1.40509 6.97889,-0.78716 11,1 z m -11,1 c -0.0494,4.09339 -0.0857,8.18666 -0.10986,12.28027 -0.0101,1.39294 -0.0237,2.78585 -0.041,4.17871 -0.0242,2.00056 -0.0345,4.00128 -0.0444,6.00196 -0.0105,1.20446 -0.021,2.40893 -0.0317,3.6499 -0.0776,3.01758 -0.0776,3.01758 2.22705,4.88916 3,0.33333 3,0.33333 6,0 2.30461,-1.87158 2.30461,-1.87158 2.22705,-4.88916 -0.0105,-1.20447 -0.0209,-2.40894 -0.0317,-3.6499 -0.006,-1.30196 -0.0129,-2.60391 -0.0195,-3.94532 -0.0167,-1.38021 -0.0336,-2.76041 -0.0508,-4.14062 -0.01,-1.38802 -0.0192,-2.77604 -0.0273,-4.16406 -0.0236,-3.40382 -0.0566,-6.8073 -0.0977,-10.21094 -3.3,0 -6.6,0 -10,0 z"
       fill="#2c1135"
       id="path32" />
    <path
       d="m 1047,542 c 0.66,0.33 1.32,0.66 2,1 -1.7502,6.08951 -4.6119,11.60584 -7.4375,17.25 -0.5263,1.05381 -1.0525,2.10762 -1.5947,3.19336 C 1035.148,572.9562 1029.7545,582.0284 1024,591 c -1,-3 -1,-3 0.3359,-5.79297 0.6729,-1.12019 1.3458,-2.24039 2.0391,-3.39453 0.7466,-1.26663 1.4927,-2.53357 2.2383,-3.80078 0.3927,-0.65952 0.7853,-1.31903 1.1899,-1.99854 C 1036.3644,564.97621 1042.0907,553.87064 1047,542 Z"
       fill="#251243"
       id="path33" />
    <path
       d="m 704,663 c 3.21764,4.82647 4.36261,10.19822 4,16 -1.32,-0.66 -2.64,-1.32 -4,-2 -0.33,0.47437 -0.66,0.94875 -1,1.4375 -3.14481,2.45688 -6.04569,2.31143 -10,2.5625 -0.66,-0.33 -1.32,-0.66 -2,-1 0,-0.66 0,-1.32 0,-2 2.97,0 5.94,0 9,0 0.12117,-0.74766 0.24234,-1.49531 0.36719,-2.26563 0.25136,-1.47726 0.25136,-1.47726 0.50781,-2.98437 0.16242,-0.97453 0.32484,-1.94906 0.49219,-2.95313 C 701.94856,667.22736 702.7084,665.27929 704,663 Z"
       fill="#2d123b"
       id="path34" />
    <path
       d="m 702,644 c 2.31,0 4.62,0 7,0 0,0.66 0,1.32 0,2 -1.98,0.33 -3.96,0.66 -6,1 -1.65,6.27 -3.3,12.54 -5,19 -0.66,0 -1.32,0 -2,0 -0.50471,-1.7695 -1.00361,-3.54065 -1.5,-5.3125 -0.27844,-0.98613 -0.55688,-1.97227 -0.84375,-2.98828 C 693,655 693,655 693,652 c 2.31,0 4.62,0 7,0 0.66,-2.64 1.32,-5.28 2,-8 z"
       fill="#270b37"
       id="path35" />
    <path
       d="m 699,604 c 3.3,0 6.6,0 10,0 -0.33,8.58 -0.66,17.16 -1,26 -0.33,0 -0.66,0 -1,0 0,-7.92 0,-15.84 0,-24 -1.98,0 -3.96,0 -6,0 0.0116,0.60844 0.0232,1.21687 0.0352,1.84375 0.0867,8.41963 -0.44542,16.76294 -1.03516,25.15625 -0.33,0 -0.66,0 -1,0 0,-9.57 0,-19.14 0,-29 z"
       fill="#cdb1a0"
       id="path36" />
    <path
       d="m 710,646 c 1.64826,2.96687 2.44271,5.65627 3,9 0.66,-0.66 1.32,-1.32 2,-2 2.125,-0.625 2.125,-0.625 4,-1 -1,5 -2,10 -3,15 -0.66,0 -1.32,0 -2,0 -0.67404,-2.56076 -1.33941,-5.12327 -2,-7.6875 -0.28617,-1.08185 -0.28617,-1.08185 -0.57813,-2.18555 C 710.45135,653.33149 709.75045,649.95385 710,646 Z"
       fill="#26093b"
       id="path37" />
    <path
       d="m 828,113 c 0.99,0.33 1.98,0.66 3,1 -6.6,6.6 -13.2,13.2 -20,20 -0.99,-0.33 -1.98,-0.66 -3,-1 6.6,-6.6 13.2,-13.2 20,-20 z"
       fill="#1d0a3e"
       id="path38" />
    <path
       d="m 969,635 c 0.66,0.33 1.32,0.66 2,1 -18.85965,20.61988 -18.85965,20.61988 -23,22 1.51376,-3.56764 3.60513,-5.83706 6.35156,-8.54688 0.85078,-0.84433 1.70157,-1.68867 2.57813,-2.55859 0.88945,-0.87269 1.7789,-1.74539 2.69531,-2.64453 0.89719,-0.88816 1.79437,-1.77633 2.71875,-2.69141 C 964.55807,639.36783 966.77692,637.18187 969,635 Z"
       fill="#200c40"
       id="path39" />
    <path
       d="m 724,652 c 0.99,0.33 1.98,0.66 3,1 -4.03872,16.89294 -4.03872,16.89294 -7,24 -0.66,0 -1.32,0 -2,0 1.51434,-8.46835 3.72371,-16.71255 6,-25 z"
       fill="#31143d"
       id="path40" />
    <path
       d="m 829,547 c 0.66,0.33 1.32,0.66 2,1 -4.27235,5.50065 -8.24617,9.79582 -15,12 -3,0.25 -3,0.25 -5,0 3.80943,-3.12789 7.74951,-5.96887 11.8125,-8.75 0.59748,-0.41121 1.19496,-0.82242 1.81055,-1.24609 C 826.08087,549.00092 827.54027,548.00022 829,547 Z"
       fill="#2e0d60"
       id="path41" />
    <path
       d="m 537,103 c 0.33,0.99 0.66,1.98 1,3 -0.62648,0.67547 -1.25297,1.35094 -1.89844,2.04688 -0.81726,0.89203 -1.63453,1.78406 -2.47656,2.70312 -0.81211,0.88172 -1.62422,1.76344 -2.46094,2.67188 -1.84629,2.19955 -2.96943,4.01188 -4.16406,6.57812 -1.29471,1.37087 -2.62151,2.71341 -4,4 0.50984,-4.69223 2.45919,-7.3686 5.3125,-11.0625 0.77988,-1.02223 1.55977,-2.04445 2.36328,-3.09766 C 532.67426,107.398 534.71977,105.17588 537,103 Z"
       fill="#291648"
       id="path42" />
    <path
       d="m 981,643 c 0.66,0 1.32,0 2,0 -1.53918,3.66752 -3.75485,5.98581 -6.57031,8.76562 -1.34385,1.33418 -1.34385,1.33418 -2.71485,2.69532 -0.93714,0.92039 -1.87429,1.84078 -2.83984,2.78906 -0.95489,0.94485 -1.90932,1.89016 -2.86328,2.83594 -2.33281,2.30924 -4.67016,4.61369 -7.01172,6.91406 0,-5.22125 4.48849,-8.41683 8,-12 2.046,-1.85465 4.1291,-3.6483 6.24219,-5.42578 C 977.4485,647.59834 979.17131,645.32103 981,643 Z"
       fill="#1d093c"
       id="path43" />
    <path
       d="m 710,604 c 2,2 2,2 2.18286,4.64209 -0.10872,3.57856 -0.22499,7.15563 -0.37036,10.73291 -0.0474,1.86785 -0.0474,1.86785 -0.0957,3.77344 -0.0445,1.19625 -0.089,2.3925 -0.13477,3.625 -0.0389,1.09747 -0.0778,2.19495 -0.11792,3.32568 -0.51186,3.19935 -1.13445,4.66422 -3.46411,6.90088 -3.6875,0.25 -3.6875,0.25 -7,0 0,-0.33 0,-0.66 0,-1 0.94875,-0.26813 1.8975,-0.53625 2.875,-0.8125 3.37767,-0.93737 3.37767,-0.93737 5.125,-4.1875 0.36887,-2.90644 0.36887,-2.90644 0.41406,-6.19922 0.0387,-1.2085 0.0774,-2.41699 0.11719,-3.66211 0.0309,-1.26264 0.0619,-2.52527 0.0937,-3.82617 0.0387,-1.27424 0.0773,-2.54848 0.11719,-3.86133 0.0944,-3.15024 0.17997,-6.30048 0.25781,-9.45117 z"
       fill="#210435"
       id="path44" />
    <path
       d="m 542,558 c 0.99,0.33 1.98,0.66 3,1 -4.62,4.62 -9.24,9.24 -14,14 -0.66,-0.66 -1.32,-1.32 -2,-2 4.29,-4.29 8.58,-8.58 13,-13 z"
       fill="#190339"
       id="path45" />
    <path
       d="m 350,245 c 0.33,0 0.66,0 1,0 -0.64155,8.17976 -2.40848,17.11271 -7,24 -1.17792,-3.53376 -0.75415,-4.44851 0.43359,-7.88672 0.47857,-1.40669 0.47857,-1.40669 0.9668,-2.8418 0.34225,-0.97646 0.68449,-1.95293 1.03711,-2.95898 0.33838,-0.98807 0.67676,-1.97613 1.02539,-2.99414 C 348.3006,249.87602 349.14657,247.43688 350,245 Z"
       fill="#311f4d"
       id="path46" />
    <path
       d="m 614,375 c 1.32,0.66 2.64,1.32 4,2 0,1.32 0,2.64 0,4 -1.98,0.99 -1.98,0.99 -4,2 -0.99,-0.99 -1.98,-1.98 -3,-3 1.875,-3.875 1.875,-3.875 3,-5 z"
       fill="#7b55a7"
       id="path47" />
    <path
       d="m 477,446 c 0.33,0 0.66,0 1,0 0.9944,4.72893 0.96566,9.0927 0.5625,13.875 -0.0783,1.03254 -0.0783,1.03254 -0.1582,2.08594 -0.12835,1.68019 -0.26542,3.35971 -0.4043,5.03906 -2.58838,-3.88257 -2.25793,-7.13223 -2.1875,-11.625 6.4e-4,-0.78891 10e-4,-1.57781 0.002,-2.39063 0.0452,-5.84401 0.0452,-5.84401 1.18555,-6.98437 z"
       fill="#3a2c55"
       id="path48" />
    <path
       d="m 1030,545 c 1,3 1,3 0.2874,4.90112 -0.5735,1.04475 -0.5735,1.04475 -1.1585,2.1106 -0.6139,1.13599 -0.6139,1.13599 -1.2402,2.29492 -0.4377,0.78568 -0.8753,1.57137 -1.3262,2.38086 -0.6507,1.19593 -0.6507,1.19593 -1.3145,2.41602 -1.0737,1.97059 -2.1566,3.93558 -3.248,5.89648 -0.99,0 -1.98,0 -3,0 3.63,-6.6 7.26,-13.2 11,-20 z"
       fill="#281647"
       id="path49" />
    <path
       d="m 792,375 c 1.32,0.66 2.64,1.32 4,2 0,1.32 0,2.64 0,4 -1.98,0.99 -1.98,0.99 -4,2 -0.99,-0.99 -1.98,-1.98 -3,-3 1.875,-3.875 1.875,-3.875 3,-5 z"
       fill="#7e5bab"
       id="path50" />
    <path
       d="m 438,109 c 0.33,0.66 0.66,1.32 1,2 -7.29841,8.44647 -7.29841,8.44647 -11,12 -0.66,-0.66 -1.32,-1.32 -2,-2 3.96,-3.96 7.92,-7.92 12,-12 z"
       fill="#2c194a"
       id="path51" />
    <path
       d="m 490,305 c -0.33,0.66 -0.66,1.32 -1,2 -2.31406,0.73076 -4.64829,1.40138 -7,2 0.66,2.31 1.32,4.62 2,7 -0.99,0.495 -0.99,0.495 -2,1 -3.07692,-5.29231 -3.07692,-5.29231 -2.6875,-8.875 0.22687,-0.70125 0.45375,-1.4025 0.6875,-2.125 3.38019,-1.04006 6.47803,-1.08004 10,-1 z"
       fill="#32204f"
       id="path52" />
    <path
       d="m 680,646 c 5.28,0 10.56,0 16,0 0,1.65 0,3.3 0,5 -0.99,-0.33 -1.98,-0.66 -3,-1 0.66,0 1.32,0 2,0 0,-0.99 0,-1.98 0,-3 -3.96,0 -7.92,0 -12,0 0.33,1.32 0.66,2.64 1,4 -1.32,0 -2.64,0 -4,0 0,-1.65 0,-3.3 0,-5 z"
       fill="#d9bdb1"
       id="path53" />
    <path
       d="m 688,329 c 0.33,0 0.66,0 1,0 0.24991,6.6505 -0.26045,12.56986 -2,19 -2,-3 -2,-3 -3,-6 0.99,-0.33 1.98,-0.66 3,-1 -0.0116,-0.69867 -0.0232,-1.39734 -0.0352,-2.11719 -0.009,-0.91008 -0.018,-1.82015 -0.0273,-2.75781 -0.0116,-0.90492 -0.0232,-1.80984 -0.0352,-2.74219 C 687,331 687,331 688,329 Z"
       fill="#290f54"
       id="path54" />
    <path
       d="m 369,203 c 0.71484,1.54687 0.71484,1.54687 1,4 -1.05391,2.53858 -2.13966,4.84496 -3.4375,7.25 -0.33838,0.64969 -0.67676,1.29937 -1.02539,1.96875 -0.83498,1.59939 -1.68464,3.19111 -2.53711,4.78125 -0.66,0 -1.32,0 -2,0 1.3485,-4.35971 3.04908,-8.31341 5.125,-12.375 0.53883,-1.05961 1.07766,-2.11922 1.63281,-3.21094 C 368.16773,204.61742 368.57766,203.82078 369,203 Z"
       fill="#2d1b49"
       id="path55" />
    <path
       d="m 716,646 c 3.96,0 7.92,0 12,0 0,1.65 0,3.3 0,5 -1.32,-0.33 -2.64,-0.66 -4,-1 0.66,0 1.32,0 2,0 0,-0.66 0,-1.32 0,-2 -1.11375,0.0206 -2.2275,0.0412 -3.375,0.0625 C 719,648 719,648 717,647 c -0.33,1.32 -0.66,2.64 -1,4 0,-1.65 0,-3.3 0,-5 z"
       fill="#dcbfb0"
       id="path56" />
    <path
       d="m 610,224 c 0,0.66 0,1.32 0,2 -1.32,0.33 -2.64,0.66 -4,1 0,0.66 0,1.32 0,2 -1.96148,1.38938 -3.96167,2.72604 -6,4 0,-0.99 0,-1.98 0,-3 -0.66,-0.33 -1.32,-0.66 -2,-1 1.6225,-0.83819 3.24808,-1.67041 4.875,-2.5 0.90492,-0.46406 1.80984,-0.92813 2.74219,-1.40625 C 608,224 608,224 610,224 Z"
       fill="#270c52"
       id="path57" />
    <path
       d="m 837,382 c 2.12563,0.11377 4.25053,0.24136 6.375,0.375 1.77504,0.10441 1.77504,0.10441 3.58594,0.21094 C 850,383 850,383 852,385 c -5.28,0 -10.56,0 -16,0 0.33,-0.99 0.66,-1.98 1,-3 z"
       fill="#321858"
       id="path58" />
    <path
       d="m 925,263 c 1.98,0.99 1.98,0.99 4,2 0.0539,1.79134 0.0928,3.58314 0.125,5.375 0.0232,0.99773 0.0464,1.99547 0.0703,3.02344 C 929,276 929,276 927,278 c -0.0606,-0.74766 -0.12117,-1.49531 -0.18359,-2.26563 -0.0838,-0.98484 -0.16758,-1.96968 -0.25391,-2.98437 -0.0812,-0.97453 -0.16242,-1.94906 -0.24609,-2.95313 C 926.04925,267.43538 925.64628,265.28099 925,263 Z"
       fill="#271642"
       id="path59" />
    <path
       d="m 738,184 c 4.20867,1.3805 6.66496,3.28517 9.75,6.4375 0.77859,0.78246 1.55719,1.56492 2.35937,2.37109 C 752,195 752,195 753,198 c -0.66,0 -1.32,0 -2,0 -1.15377,-1.39131 -2.30285,-2.78681 -3.42578,-4.20313 -2.41276,-2.75401 -5.1976,-5.03234 -8,-7.3789 C 739.05473,185.95004 738.53523,185.48211 738,185 c 0,-0.33 0,-0.66 0,-1 z"
       fill="#241342"
       id="path60" />
    <path
       d="m 943,407 c 3.34945,5.02417 3.09834,9.09951 3,15 -0.99,0.33 -1.98,0.66 -3,1 0,-5.28 0,-10.56 0,-16 z"
       fill="#311e4d"
       id="path61" />
    <path
       d="m 515,593 c 1.22143,3.50143 0.75962,5.63787 -0.375,9.125 -0.27586,0.86883 -0.55172,1.73766 -0.83594,2.63281 C 513,607 513,607 512,609 c -0.66,0 -1.32,0 -2,0 1.09698,-5.6914 2.54053,-10.74568 5,-16 z"
       fill="#31214c"
       id="path62" />
    <path
       d="m 481,423 c 1.57146,2.44829 2.06462,3.58513 1.60937,6.50781 -0.28359,0.86367 -0.56718,1.72735 -0.85937,2.61719 -0.27328,0.86883 -0.54656,1.73766 -0.82813,2.63281 C 480,437 480,437 478,439 c 0.47986,-5.5689 1.29915,-10.67068 3,-16 z"
       fill="#372554"
       id="path63" />
    <path
       d="m 337,288 c 0.66,0.33 1.32,0.66 2,1 -0.99,5.28 -1.98,10.56 -3,16 -0.66,-0.66 -1.32,-1.32 -2,-2 0.41138,-5.14219 1.69136,-10.02716 3,-15 z"
       fill="#291446"
       id="path64" />
    <path
       d="m 575,744 c 4.84688,0.78176 9.37664,2.39844 14,4 0,0.66 0,1.32 0,2 -1.77112,-0.47811 -3.54188,-0.95753 -5.3125,-1.4375 -0.98613,-0.26684 -1.97227,-0.53367 -2.98828,-0.80859 -1.9144,-0.5347 -3.81356,-1.12536 -5.69922,-1.75391 0,-0.66 0,-1.32 0,-2 z"
       fill="#342150"
       id="path65" />
    <path
       d="m 927,692 c 0.99,0.33 1.98,0.66 3,1 -3.96,2.97 -7.92,5.94 -12,9 -0.33,-0.99 -0.66,-1.98 -1,-3 0.99,0 1.98,0 3,0 0,-0.66 0,-1.32 0,-2 1.42578,-1.32422 1.42578,-1.32422 3.3125,-2.6875 0.61488,-0.45762 1.22977,-0.91523 1.86328,-1.38672 C 926.07877,692.46752 926.07877,692.46752 927,692 Z"
       fill="#2c1948"
       id="path66" />
    <path
       d="m 526,403 c 0.33,0.99 0.66,1.98 1,3 -0.33,0.66 -0.66,1.32 -1,2 -0.23274,2.87911 -0.41973,5.74146 -0.5625,8.625 -0.0432,0.8018 -0.0864,1.60359 -0.13086,2.42969 -0.10615,1.98156 -0.20691,3.96341 -0.30664,5.94531 -0.33,0 -0.66,0 -1,0 -0.24902,-2.91621 -0.47485,-5.83111 -0.6875,-8.75 -0.0728,-0.825 -0.14566,-1.65 -0.2207,-2.5 -0.42315,-6.17298 -0.42315,-6.17298 1.38867,-9.32813 C 524.98191,403.95266 525.48336,403.48344 526,403 Z"
       fill="#cec0e0"
       id="path67" />
    <path
       d="m 749,297 c 0.66,0.33 1.32,0.66 2,1 -1.12105,1.31588 -2.24697,2.6276 -3.375,3.9375 -0.62648,0.7309 -1.25297,1.4618 -1.89844,2.21484 C 744,306 744,306 742,307 c 0.57576,-3.35251 1.59306,-4.93819 4.0625,-7.25 0.54785,-0.52078 1.0957,-1.04156 1.66016,-1.57813 C 748.35494,297.5918 748.35494,297.5918 749,297 Z"
       fill="#ede3fa"
       id="path68" />
    <path
       d="m 528,114 c 0.66,0.33 1.32,0.66 2,1 -3.625,6.75 -3.625,6.75 -7,9 0.50299,-4.40114 2.08773,-6.71195 5,-10 z"
       fill="#1e0b3e"
       id="path69" />
    <path
       d="m 915,330 c 0.66,0.33 1.32,0.66 2,1 -0.78375,0.7425 -1.5675,1.485 -2.375,2.25 -2.19005,2.29433 -3.45231,3.87159 -4.625,6.75 -0.66,-1.65 -1.32,-3.3 -2,-5 2.31,-1.65 4.62,-3.3 7,-5 z"
       fill="#eae4f1"
       id="path70" />
    <path
       d="m 799,215 c 0.33,0 0.66,0 1,0 0,2.64 0,5.28 0,8 0.99,0.33 1.98,0.66 3,1 -0.99,0.495 -0.99,0.495 -2,1 -2.125,-0.9375 -2.125,-0.9375 -4,-2 0.875,-6.875 0.875,-6.875 2,-8 z"
       fill="#d1bfec"
       id="path71" />
    <path
       d="m 815,651 c 0.33,0.99 0.66,1.98 1,3 -0.95207,1.00596 -1.91187,2.00462 -2.875,3 -0.53367,0.55687 -1.06734,1.11375 -1.61719,1.6875 C 810,660 810,660 808,660 c 1.55501,-3.81684 4.03595,-6.19196 7,-9 z"
       fill="#e2d7f4"
       id="path72" />
    <path
       d="m 894,528 c 0.66,0 1.32,0 2,0 -1.39154,4.42762 -3.52071,6.95563 -7,10 -0.66,0 -1.32,0 -2,0 0,-0.66 0,-1.32 0,-2 0.66,0 1.32,0 2,0 0,-0.66 0,-1.32 0,-2 1.312,-1.35433 2.64631,-2.68733 4,-4 0.33,-0.66 0.66,-1.32 1,-2 z"
       fill="#1e093c"
       id="path73" />
    <path
       d="m 862,512 c 0.66,0 1.32,0 2,0 -1.31225,3.93674 -2.9191,6.22719 -6,9 -0.66,-0.33 -1.32,-0.66 -2,-1 0.95043,-1.33898 1.91059,-2.67105 2.875,-4 0.53367,-0.7425 1.06734,-1.485 1.61719,-2.25 0.49758,-0.5775 0.99515,-1.155 1.50781,-1.75 z"
       fill="#2a0b59"
       id="path74" />
    <path
       d="m 713,658 c 0.33,0.99 0.66,1.98 1,3 0.66,0 1.32,0 2,0 0.33,-0.99 0.66,-1.98 1,-3 -0.33,2.97 -0.66,5.94 -1,9 -0.66,0 -1.32,0 -2,0 -0.33,-2.97 -0.66,-5.94 -1,-9 z"
       fill="#381c3b"
       id="path75" />
    <path
       d="m 819,554 c 0.66,0.99 1.32,1.98 2,3 -3.51187,2.40814 -5.72657,3.36629 -10,3 2.61514,-2.12039 5.19638,-4.13092 8,-6 z"
       fill="#331564"
       id="path76" />
    <path
       d="m 613,318 c 0.99,0.66 1.98,1.32 3,2 0,0.66 0,1.32 0,2 -5.94,0.495 -5.94,0.495 -12,1 0.33,-0.66 0.66,-1.32 1,-2 2.64,0 5.28,0 8,0 0,-0.99 0,-1.98 0,-3 z"
       fill="#280b56"
       id="path77" />
    <path
       d="m 683,654 c 0.66,0 1.32,0 2,0 0.66,3.3 1.32,6.6 2,10 -0.99,0.495 -0.99,0.495 -2,1 -1.42259,-3.82321 -2.24042,-6.91281 -2,-11 z"
       fill="#33183c"
       id="path78" />
    <path
       d="m 528,447 c 1.44978,2.34112 2.04314,3.57969 1.75781,6.35937 -0.20883,0.78891 -0.41765,1.57782 -0.63281,2.39063 -0.20367,0.79922 -0.40734,1.59844 -0.61719,2.42187 -0.16758,0.60329 -0.33515,1.20657 -0.50781,1.82813 -0.33,0 -0.66,0 -1,0 -0.0272,-1.41656 -0.0465,-2.83327 -0.0625,-4.25 -0.0116,-0.78891 -0.0232,-1.57781 -0.0352,-2.39063 0.0938,-2.26628 0.46525,-4.18826 1.09766,-6.35937 z"
       fill="#cabde3"
       id="path79" />
    <path
       d="m 709,678 c 2.97,0 5.94,0 9,0 -0.33,0.99 -0.66,1.98 -1,3 -2.31,0 -4.62,0 -7,0 -0.33,-0.99 -0.66,-1.98 -1,-3 z"
       fill="#2d103e"
       id="path80" />
    <path
       d="m 699,661 c 1.32,0.33 2.64,0.66 4,1 -0.33,2.97 -0.66,5.94 -1,9 -0.66,0 -1.32,0 -2,0 0.33,-2.31 0.66,-4.62 1,-7 -0.66,0 -1.32,0 -2,0 0,-0.99 0,-1.98 0,-3 z"
       fill="#dac0ab"
       id="path81" />
    <path
       d="m 854,523 c 0.66,0.66 1.32,1.32 2,2 -1.98,1.98 -3.96,3.96 -6,6 -0.66,-0.33 -1.32,-0.66 -2,-1 1.98,-2.31 3.96,-4.62 6,-7 z"
       fill="#311063"
       id="path82" />
    <path
       d="m 569,380 c 1.35433,1.312 2.68733,2.64631 4,4 0,0.33 0,0.66 0,1 -3.63,0 -7.26,0 -11,0 0,-0.33 0,-0.66 0,-1 1.98,-0.33 3.96,-0.66 6,-1 0.33,-0.99 0.66,-1.98 1,-3 z"
       fill="#442f6a"
       id="path83" />
    <path
       d="m 1017,168 c 3.6801,3.38168 5.9786,6.42522 8,11 -0.66,0 -1.32,0 -2,0 -1.5078,-1.64453 -1.5078,-1.64453 -3.125,-3.8125 -0.8082,-1.06154 -0.8082,-1.06154 -1.6328,-2.14453 C 1017,171 1017,171 1017,168 Z"
       fill="#271643"
       id="path84" />
    <path
       d="m 395,161 c 0.66,0 1.32,0 2,0 -1.18582,3.37504 -2.27574,5.64723 -5,8 -0.66,-0.33 -1.32,-0.66 -2,-1 0.78346,-1.1722 1.57703,-2.33764 2.375,-3.5 0.44086,-0.64969 0.88172,-1.29938 1.33594,-1.96875 C 394.34902,161.77328 394.34902,161.77328 395,161 Z"
       fill="#1f0b3e"
       id="path85" />
    <path
       d="m 673,434 c -1.39333,3.3672 -2.97893,4.98595 -6,7 0,-3 0,-3 1.875,-5.1875 C 671,434 671,434 673,434 Z"
       fill="#1f0c3e"
       id="path86" />
    <path
       d="m 547,98 c 2.97,0 5.94,0 9,0 -0.33,0.99 -0.66,1.98 -1,3 -2.64,-0.33 -5.28,-0.66 -8,-1 0,-0.66 0,-1.32 0,-2 z"
       fill="#433363"
       id="path87" />
    <path
       d="m 769,674 c 0.99,0.33 1.98,0.66 3,1 1.1875,3.5625 1.1875,3.5625 2,7 -0.99,0.495 -0.99,0.495 -2,1 -0.99,-2.97 -1.98,-5.94 -3,-9 z"
       fill="#30105f"
       id="path88" />
    <path
       d="m 986,615 c 0.33,0.99 0.66,1.98 1,3 -1.65,1.65 -3.3,3.3 -5,5 -0.66,-0.33 -1.32,-0.66 -2,-1 1.98,-2.31 3.96,-4.62 6,-7 z"
       fill="#281548"
       id="path89" />
    <path
       d="m 612,477 c 0.99,0.33 1.98,0.66 3,1 -0.61875,0.5775 -1.2375,1.155 -1.875,1.75 -1.93847,2.0525 -3.02514,3.68367 -4.125,6.25 -0.36923,-5.53846 -0.36923,-5.53846 1.5,-7.875 0.495,-0.37125 0.99,-0.7425 1.5,-1.125 z"
       fill="#1a0834"
       id="path90" />
    <path
       d="m 704,171 c 2.64,0.33 5.28,0.66 8,1 0,0.33 0,0.66 0,1 -0.94875,0.10312 -1.8975,0.20625 -2.875,0.3125 -3.41607,0.37289 -3.41607,0.37289 -5.125,3.6875 0,-1.98 0,-3.96 0,-6 z"
       fill="#3e3155"
       id="path91" />
    <path
       d="m 883,721 c -0.33,0.99 -0.66,1.98 -1,3 -3.5625,1.6875 -3.5625,1.6875 -7,3 1.27121,-3.81363 3.80922,-6 8,-6 z"
       fill="#261246"
       id="path92" />
    <path
       d="m 544,391 c 0,0.66 0,1.32 0,2 -2.8125,1.5625 -2.8125,1.5625 -6,3 -0.99,-0.33 -1.98,-0.66 -3,-1 6.75,-4 6.75,-4 9,-4 z"
       fill="#ded0f2"
       id="path93" />
    <path
       d="m 768,348 c 0,0.99 0,1.98 0,3 -2.5,2.1875 -2.5,2.1875 -5,4 0,-0.99 0,-1.98 0,-3 2.5,-2.1875 2.5,-2.1875 5,-4 z"
       fill="#29124e"
       id="path94" />
    <path
       d="m 674,324 c 1.32,1.65 2.64,3.3 4,5 -0.33,0.66 -0.66,1.32 -1,2 -0.66,-0.33 -1.32,-0.66 -2,-1 -0.33,0.66 -0.66,1.32 -1,2 0,-2.64 0,-5.28 0,-8 z"
       fill="#cabbe4"
       id="path95" />
    <path
       d="m 662,179 c 1.98,0.99 1.98,0.99 4,2 -0.66667,2 -1.33333,4 -2,6 -2.15194,-3.22792 -2.20086,-4.28401 -2,-8 z"
       fill="#281747"
       id="path96" />
    <path
       d="m 807,134 c 0.99,0.33 1.98,0.66 3,1 -3.5,4.875 -3.5,4.875 -8,6 1.65,-2.31 3.3,-4.62 5,-7 z"
       fill="#2d1b4a"
       id="path97" />
  </g>
</svg>
